<?xml version="1.0" standalone="no"?>
<!DOCTYPE svg PUBLIC "-//W3C//DTD SVG 20010904//EN"
 "http://www.w3.org/TR/2001/REC-SVG-20010904/DTD/svg10.dtd">
<svg version="1.0" xmlns="http://www.w3.org/2000/svg"
 width="828.000000pt" height="510.000000pt" viewBox="0 0 828.000000 510.000000"
 preserveAspectRatio="xMidYMid meet">

<g transform="translate(0.000000,510.000000) scale(0.100000,-0.100000)"
fill="#000000" stroke="none">
<path d="M0 4489 c0 -577 1 -610 18 -605 9 2 85 19 167 36 83 18 200 43 260
56 61 13 142 28 180 35 123 19 318 58 395 78 41 11 125 29 185 40 155 28 234
46 280 65 52 21 327 86 551 131 290 59 389 89 494 152 30 18 61 33 68 33 6 0
12 6 12 14 0 8 5 16 12 18 9 3 8 31 -6 114 -19 123 -24 131 -111 163 -60 23
-299 74 -420 90 -68 9 -206 32 -280 47 -29 5 -65 64 -65 107 l0 37 -870 0
-870 0 0 -611z"/>
<path d="M6810 5091 c0 -5 -21 -19 -46 -31 -25 -13 -49 -32 -54 -44 -4 -11
-16 -43 -25 -70 -15 -41 -24 -51 -60 -67 -49 -22 -55 -35 -55 -129 0 -86 -15
-113 -65 -122 -84 -14 -119 -28 -154 -61 -52 -50 -78 -60 -198 -82 -18 -3 -55
-14 -82 -24 -28 -12 -52 -16 -57 -11 -5 5 -34 12 -65 16 -49 6 -58 4 -85 -19
-17 -15 -39 -47 -48 -72 -10 -25 -22 -45 -27 -45 -14 0 -150 -91 -191 -128
-21 -19 -38 -40 -38 -47 0 -7 -7 -16 -16 -19 -17 -7 -18 -61 -1 -84 15 -19 4
-23 -33 -12 -23 7 -38 6 -47 -2 -10 -8 -17 -8 -25 0 -7 7 -20 12 -30 12 -22 0
-68 -28 -68 -41 0 -17 86 -63 134 -72 28 -5 67 -17 88 -28 45 -23 66 -24 89
-3 21 19 46 10 29 -11 -18 -21 -3 -37 21 -24 22 11 49 6 49 -11 0 -5 -8 -10
-19 -10 -22 0 -32 -29 -24 -73 4 -27 13 -35 56 -55 29 -12 59 -22 67 -22 8 0
21 -9 28 -20 7 -11 17 -20 23 -20 5 0 30 -9 54 -20 31 -14 43 -25 39 -35 -4
-8 -10 -12 -15 -9 -14 8 -23 -26 -11 -38 6 -6 8 -17 5 -25 -3 -7 2 -22 12 -33
15 -16 15 -22 5 -35 -7 -8 -16 -30 -20 -48 l-7 -32 -13 28 c-17 34 -70 63 -81
45 -5 -8 -1 -15 11 -20 11 -4 20 -12 20 -19 0 -19 40 -64 63 -70 21 -6 20 -7
-7 -18 -16 -7 -36 -9 -44 -6 -22 8 -8 -19 15 -30 12 -5 21 -16 21 -25 0 -8 3
-23 7 -32 4 -11 3 -18 -4 -18 -6 0 -11 9 -11 20 0 11 -4 21 -10 21 -5 1 -15 2
-20 3 -6 0 -15 7 -19 15 -5 7 -14 10 -21 6 -6 -4 -22 2 -35 15 -38 36 -40 3
-2 -35 19 -19 37 -42 41 -50 3 -9 21 -25 41 -36 36 -22 43 -33 24 -44 -7 -5
-5 -13 5 -24 14 -15 46 -82 46 -96 0 -16 -22 11 -42 48 -18 36 -22 39 -28 22
-7 -19 -7 -19 -18 2 -16 29 -15 33 6 26 15 -6 15 -4 -2 15 -10 12 -22 20 -26
19 -4 -1 -20 13 -36 32 -31 37 -56 113 -48 146 5 22 -37 57 -44 36 -5 -16 -19
-14 -42 9 -25 25 -25 33 -1 25 19 -6 19 -5 5 24 -11 21 -23 31 -39 31 -31 0
-47 22 -39 54 4 17 2 26 -6 26 -6 0 -8 -5 -5 -10 4 -6 2 -17 -5 -25 -17 -21
-93 31 -84 58 3 11 2 17 -3 14 -5 -3 -26 14 -47 38 -26 31 -32 45 -21 45 8 0
15 -4 15 -10 0 -16 40 -12 46 5 4 8 3 23 0 32 -6 15 -8 15 -17 3 -7 -10 -12
-11 -15 -4 -5 12 -54 6 -54 -7 0 -17 -43 -4 -50 16 -9 24 -60 70 -60 54 0 -8
-5 -8 -15 1 -22 19 -18 32 8 24 20 -6 20 -4 -6 24 -18 19 -35 28 -47 25 -10
-3 -21 0 -24 6 -4 6 -16 11 -27 11 -12 0 -19 6 -17 15 2 9 -12 22 -32 32 -22
12 -36 26 -38 42 -3 20 -8 22 -30 16 -15 -3 -38 -8 -52 -9 -14 -2 -28 -4 -32
-5 -5 0 -8 -13 -8 -29 0 -17 -8 -32 -20 -40 -12 -7 -18 -17 -15 -22 9 -15 25
-12 25 5 0 8 9 15 20 15 23 0 50 -47 34 -58 -5 -4 -17 -27 -27 -52 l-17 -45
41 -40 c33 -32 40 -36 34 -17 -7 25 6 29 24 8 8 -9 8 -16 2 -20 -6 -4 -8 -13
-4 -21 4 -11 1 -13 -11 -9 -12 4 -16 0 -16 -16 0 -11 4 -19 9 -15 5 3 12 1 16
-5 9 -14 -21 -16 -73 -4 -13 2 -20 9 -17 14 3 5 -7 8 -22 7 -26 -2 -103 -64
-103 -84 0 -19 39 -33 65 -23 14 5 25 13 25 17 0 10 167 9 197 -1 27 -9 39
-36 16 -36 -24 0 -4 -16 29 -24 23 -5 30 -2 44 25 l16 31 14 -27 c8 -15 17
-42 19 -59 l6 -31 -26 30 c-24 29 -26 29 -39 11 -8 -10 -20 -15 -25 -11 -6 3
-18 -1 -27 -9 -14 -15 -18 -14 -44 4 -35 25 -47 26 -29 3 13 -16 11 -16 -14 1
-29 17 -29 17 -22 -3 7 -23 -4 -28 -23 -9 -8 8 -15 8 -24 1 -7 -6 -25 -13 -40
-17 -25 -6 -28 -4 -28 18 0 29 -6 34 -54 42 -43 6 -115 72 -94 86 9 5 7 8 -8
8 -12 0 -26 11 -34 25 -12 22 -11 27 6 47 14 16 15 20 4 16 -9 -3 -48 3 -89
13 -40 10 -77 16 -82 13 -5 -3 -9 4 -9 16 0 16 -5 20 -22 17 -13 -2 -17 -2
-10 0 7 3 10 9 7 14 -4 5 -1 9 4 9 16 0 13 14 -8 36 -10 12 -22 34 -25 50 -10
42 -33 71 -47 57 -13 -13 -42 -6 -33 8 3 5 14 9 26 9 l20 0 -21 33 c-11 17
-29 38 -41 46 -18 12 -20 11 -20 -7 0 -24 -16 -38 -22 -20 -4 12 -28 3 -28
-12 0 -17 34 -20 56 -5 32 21 37 19 19 -9 -14 -22 -14 -27 1 -60 10 -20 24
-36 31 -36 8 0 11 -4 8 -10 -12 -19 5 -31 27 -19 20 11 21 9 15 -20 -4 -18 -2
-31 3 -31 6 0 10 -7 10 -15 0 -8 -5 -15 -12 -15 -6 0 -3 -6 7 -14 12 -9 19
-26 19 -52 1 -23 6 -39 13 -39 7 0 17 -5 24 -12 6 -6 18 -9 25 -6 9 3 14 -2
14 -12 0 -11 -5 -15 -15 -12 -8 4 -17 2 -19 -2 -10 -15 28 -39 71 -46 53 -8
61 -20 31 -45 -26 -21 -48 -26 -48 -9 0 6 -7 3 -16 -5 -8 -9 -26 -16 -39 -16
-12 0 -25 -7 -29 -15 -3 -9 0 -15 9 -15 8 0 18 -7 22 -15 5 -8 26 -17 47 -19
36 -5 85 -48 78 -69 -1 -5 3 -5 9 -1 7 4 17 0 23 -8 6 -8 19 -17 30 -21 14 -5
17 -13 11 -30 -11 -35 -13 -77 -3 -77 5 0 5 -12 2 -26 -5 -20 -2 -26 15 -31
11 -3 21 -12 21 -21 0 -21 10 -10 15 17 2 12 0 19 -6 16 -5 -4 -9 1 -9 10 0 9
-4 13 -10 10 -5 -3 -10 -2 -10 4 0 5 6 12 13 14 7 3 5 6 -5 6 -19 1 -26 45 -9
55 13 8 48 -34 66 -81 10 -24 21 -40 26 -37 5 3 9 -4 9 -15 0 -14 -6 -21 -18
-21 -31 0 -33 -11 -7 -42 29 -34 34 -64 9 -50 -28 16 -104 94 -104 108 0 7 -9
16 -21 19 -13 4 -18 12 -15 22 17 44 18 63 2 63 -10 0 -16 -9 -16 -24 0 -30
-18 -37 -46 -19 -18 11 -24 11 -43 -6 -21 -18 -25 -19 -45 -6 -13 9 -25 12
-28 9 -4 -3 -12 4 -18 16 -9 16 -18 21 -37 17 -17 -3 -27 1 -31 12 -9 23 -25
38 -38 34 -6 -2 -14 4 -16 14 -6 21 -135 96 -150 87 -12 -7 -48 25 -48 43 0 7
-8 21 -18 31 -10 10 -26 49 -36 87 -9 37 -23 80 -31 96 -23 44 -18 56 11 27
15 -14 26 -37 26 -50 0 -16 11 -31 34 -46 19 -12 38 -22 43 -22 4 0 24 -13 42
-30 19 -16 43 -33 54 -36 11 -4 27 -12 35 -20 22 -19 88 5 109 40 8 14 21 26
28 26 24 0 24 20 0 56 -16 22 -27 31 -30 22 -2 -7 -7 -10 -11 -7 -9 9 4 40 15
33 5 -3 9 -1 9 5 0 5 -10 13 -21 16 -12 4 -37 22 -55 41 -21 20 -40 31 -49 28
-11 -5 -13 -2 -9 10 7 19 -24 35 -35 18 -4 -6 -12 -7 -20 -3 -17 11 -54 2 -64
-16 -4 -7 -13 -13 -20 -13 -8 0 -7 3 2 9 7 5 11 13 7 19 -3 6 0 13 6 15 7 3 3
6 -8 6 -12 1 -27 8 -34 16 -7 8 -18 14 -24 14 -18 -3 -46 12 -40 22 3 5 0 9
-6 9 -6 0 -9 4 -6 9 4 5 3 17 -1 27 -6 16 -7 16 -14 -2 -7 -17 -8 -17 -8 4 -1
12 -5 22 -11 22 -5 0 -16 16 -25 36 -21 51 -53 93 -69 90 -8 -1 -21 -8 -30
-15 -22 -18 -48 7 -34 33 15 28 -7 44 -30 23 -10 -9 -21 -14 -25 -11 -8 8 -47
-5 -47 -17 0 -5 5 -9 10 -9 6 0 18 -8 29 -19 10 -10 27 -23 37 -29 17 -9 17
-11 -1 -28 -23 -24 -65 -30 -65 -10 0 8 7 19 16 24 20 11 10 32 -14 32 -10 0
-25 9 -35 20 -21 25 -21 30 -2 30 8 0 15 5 15 10 0 6 -4 10 -10 10 -5 0 -10 7
-10 15 0 16 -48 64 -64 65 -5 0 0 -10 12 -23 23 -25 33 -62 10 -39 -19 19 -30
14 -17 -9 8 -15 8 -24 0 -32 -18 -18 -13 -47 9 -47 23 0 26 -10 8 -28 -9 -9
-8 -12 8 -13 10 0 13 -3 7 -6 -15 -6 -17 -49 -3 -58 6 -3 10 -19 10 -35 0 -16
7 -35 15 -44 8 -8 15 -19 15 -25 0 -6 6 -21 13 -34 6 -12 13 -23 14 -25 0 -2
15 4 32 12 34 18 57 2 28 -19 -16 -12 -23 -35 -11 -35 3 0 12 6 20 14 11 11
19 12 39 3 26 -12 34 -37 12 -37 -17 0 -43 -43 -29 -48 6 -2 23 -42 38 -90 14
-48 32 -98 39 -112 16 -32 31 -129 18 -115 -6 6 -16 33 -23 60 -17 65 -57 144
-125 249 -31 47 -70 116 -87 153 -38 84 -98 268 -98 302 -1 25 -1 25 -15 7 -8
-11 -15 -31 -15 -44 0 -21 -2 -22 -15 -12 -13 10 -15 9 -15 -9 0 -11 -4 -21
-10 -21 -5 0 -7 6 -4 14 4 10 -5 13 -35 11 -27 -2 -41 2 -41 10 0 6 -9 20 -20
30 -18 16 -20 16 -20 2 0 -10 -5 -14 -15 -11 -19 8 -19 -1 1 -87 9 -38 20 -67
25 -64 5 4 6 0 4 -8 -3 -7 1 -29 9 -49 8 -19 12 -38 9 -42 -4 -3 6 -6 21 -6
25 0 27 -2 22 -39 -2 -22 -7 -45 -11 -50 -3 -6 -1 -11 5 -11 6 0 9 -4 5 -10
-11 -17 6 -60 24 -58 9 2 15 -3 13 -9 -1 -7 5 -13 13 -13 17 0 21 -36 4 -42
-8 -3 -8 -14 0 -43 13 -48 15 -133 2 -119 -12 13 -71 181 -71 202 0 9 -7 31
-16 47 -8 17 -25 75 -36 130 -26 133 -80 285 -100 285 -10 0 -1 -38 12 -55 5
-5 0 -20 -10 -33 -10 -12 -21 -19 -24 -14 -3 5 -19 7 -35 4 -21 -3 -39 3 -57
17 -15 12 -35 21 -45 21 -11 0 -19 7 -19 16 0 21 -34 14 -38 -8 -2 -10 3 -32
11 -50 12 -29 31 -96 43 -152 5 -26 24 -37 51 -31 12 3 28 -2 37 -11 11 -10
30 -15 54 -13 54 4 109 -26 118 -65 4 -17 11 -38 17 -47 13 -21 -2 -42 -46
-64 -34 -17 -38 -18 -35 -7 0 4 -2 15 -7 25 -6 14 -10 15 -21 6 -11 -9 -14 -8
-14 5 0 9 -7 16 -15 16 -8 0 -15 5 -15 10 0 6 -7 10 -15 10 -8 0 -15 -3 -15
-8 0 -4 -10 -13 -21 -21 -27 -16 -42 1 -34 39 4 19 3 21 -5 10 -6 -10 -10 -11
-10 -2 0 6 -7 12 -16 12 -13 0 -14 -3 -5 -14 9 -11 9 -20 2 -35 -16 -28 -14
-33 9 -26 13 4 20 2 20 -8 0 -11 -9 -12 -58 -2 -77 16 -99 32 -108 74 -3 20
-9 30 -11 24 -3 -7 -12 -13 -22 -13 -31 0 -39 -18 -25 -58 7 -20 13 -47 14
-60 0 -13 4 -31 9 -40 5 -9 12 -34 15 -54 5 -32 3 -37 -14 -35 -15 1 -20 8
-19 27 0 14 -2 39 -6 55 -8 40 -68 148 -84 153 -9 3 -11 0 -6 -8 15 -24 15
-68 0 -80 -8 -7 -15 -9 -15 -4 0 5 -5 2 -10 -6 -8 -12 -13 -13 -29 -3 -14 9
-22 9 -27 2 -3 -6 -12 -8 -19 -5 -8 3 -19 -2 -26 -10 -7 -8 -18 -13 -26 -10
-7 3 -13 0 -13 -8 0 -14 -67 -38 -75 -26 -5 8 -58 -7 -83 -24 -8 -5 -11 -17
-8 -31 3 -13 2 -27 -4 -30 -5 -3 -11 0 -11 7 -1 7 -2 18 -4 23 -1 6 -3 18 -3
28 -1 9 -8 17 -16 17 -8 0 -17 9 -21 19 -6 19 -41 35 -49 23 -2 -4 -2 -29 0
-56 3 -41 2 -46 -11 -36 -11 9 -15 9 -15 1 0 -7 -20 -21 -45 -32 -25 -11 -75
-42 -111 -70 -61 -46 -76 -54 -97 -50 -5 1 -7 -6 -5 -15 5 -25 58 -29 58 -4 0
17 39 50 60 50 18 0 0 -21 -28 -32 -15 -6 -22 -12 -15 -15 6 -2 31 5 54 16 32
16 46 18 56 10 10 -9 22 -2 52 28 21 21 45 37 52 34 9 -3 10 5 6 28 -7 34 -2
36 38 21 24 -9 25 -11 11 -31 -12 -18 -13 -27 0 -69 8 -27 20 -63 28 -81 l13
-32 14 29 c21 42 42 40 87 -7 35 -37 43 -41 56 -30 12 10 19 11 30 2 10 -9 16
-8 26 4 22 26 52 38 115 48 99 14 170 12 160 -4 -4 -6 -13 -8 -21 -5 -8 3 -14
1 -14 -4 0 -12 30 -13 48 -2 10 7 8 25 -12 88 -29 89 -30 98 -15 89 6 -4 8 -9
5 -12 -3 -3 9 -26 25 -50 29 -41 32 -43 48 -29 25 23 43 20 39 -6 -2 -19 2
-24 25 -26 18 -2 32 -12 39 -27 10 -23 60 -49 72 -38 3 4 6 2 6 -4 0 -6 12
-13 26 -16 24 -4 25 -2 20 22 -4 14 -11 55 -18 89 -9 49 -16 66 -32 72 -12 5
-15 9 -8 9 10 1 12 12 6 46 -10 70 12 54 25 -17 23 -130 38 -161 66 -138 12
10 15 10 15 -2 0 -8 -3 -18 -7 -21 -7 -8 -14 -57 -7 -57 2 0 9 12 15 28 l11
27 9 -24 c6 -14 15 -21 23 -18 17 7 94 -21 114 -40 15 -15 36 -18 27 -4 -3 5
-1 12 4 15 5 3 11 -3 14 -14 4 -14 10 -18 23 -13 14 5 16 2 11 -18 -5 -18 -1
-28 12 -36 24 -15 31 -56 14 -79 -13 -18 -15 -18 -27 -2 -8 11 -22 16 -35 13
-13 -2 -30 4 -41 15 -24 24 -60 26 -60 4 0 -14 -3 -14 -15 -4 -12 10 -15 10
-15 -4 0 -9 -5 -16 -10 -16 -12 0 -61 74 -80 120 -10 25 -17 29 -34 24 -30 -9
-31 -12 -14 -31 9 -10 13 -24 11 -30 -3 -8 4 -13 16 -13 24 0 58 -43 39 -49
-7 -2 -14 1 -16 8 -2 6 -8 11 -13 11 -4 0 -5 -8 -2 -17 5 -13 2 -15 -11 -10
-10 4 -27 7 -37 7 -11 0 -17 5 -14 10 3 6 0 10 -7 10 -13 0 -58 62 -58 80 0 6
-7 27 -15 47 -11 25 -19 33 -26 26 -12 -12 -21 -73 -11 -73 4 0 7 -32 8 -70 1
-71 -4 -81 -26 -56 -6 8 -18 12 -26 9 -8 -3 -14 0 -14 7 0 7 -8 9 -22 4 -20
-6 -21 -5 -9 10 19 23 -4 21 -27 -2 -17 -17 -20 -17 -30 -3 -9 14 -11 13 -11
-6 -1 -13 -4 -23 -8 -24 -5 0 -32 -2 -61 -4 -56 -3 -54 -5 -35 43 3 6 0 12 -6
12 -6 0 -13 -10 -16 -22 -5 -21 -12 -23 -74 -23 -43 0 -74 5 -85 14 -10 9 -16
10 -16 2 0 -6 -7 -11 -16 -11 -14 0 -14 3 -3 16 10 13 10 17 -1 24 -7 4 -19 6
-25 3 -7 -2 -20 3 -29 12 -20 20 -21 3 -2 -34 16 -30 7 -57 -17 -48 -11 4 -13
0 -9 -15 4 -15 0 -19 -14 -18 -10 1 -21 1 -24 1 -3 -1 -18 -4 -35 -6 -50 -7
-62 -10 -77 -22 -22 -19 -68 -34 -68 -22 0 5 -13 3 -30 -6 -36 -19 -53 -19
-90 0 -21 11 -28 20 -24 33 5 16 5 16 -9 0 -8 -10 -19 -18 -26 -18 -6 0 -11
-7 -11 -15 0 -8 -5 -15 -10 -15 -12 0 -3 -48 12 -67 14 -17 20 -195 7 -187 -6
3 -44 -28 -85 -70 -70 -72 -94 -89 -94 -66 0 6 4 10 8 10 11 0 122 110 122
120 0 11 -39 20 -45 10 -3 -4 -20 -13 -37 -19 -29 -9 -31 -9 -15 3 10 8 16 20
15 27 -2 8 2 13 9 12 7 -2 21 11 33 27 12 17 18 30 15 30 -11 0 -70 -34 -73
-42 -2 -5 -9 -8 -15 -8 -7 0 -17 -10 -22 -22 -17 -36 -36 -34 -31 4 2 26 9 35
32 42 16 4 43 14 59 21 43 19 88 28 81 16 -3 -5 0 -11 6 -14 10 -3 11 -11 1
-37 -14 -38 -13 -43 11 -34 12 5 16 14 12 28 -3 12 -8 50 -11 86 -3 35 -8 67
-11 71 -7 12 -65 -9 -86 -31 -10 -11 -24 -20 -31 -20 -7 0 -36 -18 -65 -41
-41 -30 -57 -37 -67 -29 -10 8 -15 6 -20 -9 -5 -16 -12 -19 -40 -14 -30 5 -35
2 -40 -18 -8 -31 -2 -63 14 -83 7 -9 11 -16 8 -16 -3 0 1 -16 9 -35 17 -42 19
-191 3 -267 -6 -29 -21 -66 -33 -83 -21 -29 -24 -75 -5 -75 5 0 13 10 18 23 5
12 12 21 17 19 18 -7 29 27 17 48 -12 18 -3 37 11 23 3 -3 6 -56 5 -117 -1
-68 -4 -101 -9 -86 -6 21 -9 22 -14 9 -4 -10 -6 -25 -4 -34 2 -10 -3 -20 -11
-23 -8 -3 -11 0 -7 6 7 12 -3 42 -14 42 -14 0 -20 -52 -12 -90 l8 -35 8 30 c8
31 21 45 45 45 10 0 12 -11 9 -45 -3 -25 -2 -45 3 -45 5 0 9 9 9 20 0 11 6 20
14 20 11 0 13 14 8 66 -3 37 0 74 6 87 6 12 13 42 15 65 3 25 14 54 26 66 12
12 21 30 21 40 0 9 9 34 20 56 11 22 20 46 20 55 0 8 8 15 18 15 19 0 45 24
55 50 4 10 6 11 6 2 1 -10 6 -10 21 -2 14 7 26 8 38 1 15 -9 15 -10 -3 -11
-29 0 -45 -19 -45 -52 0 -18 -5 -28 -15 -28 -8 0 -15 5 -15 12 0 29 -20 -11
-26 -51 -6 -41 -5 -42 14 -32 23 12 59 15 48 4 -4 -5 -11 -8 -14 -8 -24 -1
-31 -17 -19 -43 6 -15 16 -30 22 -34 14 -10 -45 -57 -63 -50 -9 3 -10 7 -3 11
7 5 7 18 0 44 -5 21 -7 42 -3 48 4 7 1 10 -7 7 -9 -3 -14 -19 -14 -44 0 -21
-3 -43 -6 -49 -4 -5 -9 -22 -13 -38 -3 -15 -11 -27 -17 -27 -7 0 -8 7 -4 18 4
9 9 23 12 30 3 8 0 10 -10 6 -27 -10 -48 -87 -46 -166 2 -62 24 -173 29 -143
9 58 15 68 63 96 15 9 19 7 24 -10 3 -11 8 -19 12 -17 3 2 25 1 49 -4 41 -7
42 -7 42 20 0 35 -26 47 -42 20 -11 -18 -14 -18 -30 -3 -24 21 -23 75 0 97 18
15 19 15 30 -9 7 -14 12 -33 12 -42 0 -10 6 -14 20 -10 29 8 68 -48 52 -74
-15 -23 -15 -49 -2 -49 20 0 9 -25 -14 -36 -20 -9 -26 -9 -30 2 -3 8 -12 14
-21 14 -9 0 -15 9 -15 25 0 29 -8 31 -36 11 -14 -11 -23 -12 -34 -3 -8 6 -12
8 -8 3 4 -5 1 -15 -7 -23 -8 -8 -15 -27 -15 -43 0 -22 -11 -37 -44 -64 -48
-40 -58 -43 -80 -20 -15 14 -16 14 -16 -5 0 -12 6 -21 15 -21 19 0 19 -11 -1
-36 -8 -10 -12 -12 -8 -4 5 10 0 9 -14 -4 -26 -23 -28 -39 -7 -56 11 -9 13
-16 5 -24 -5 -5 -10 -19 -10 -30 0 -18 -2 -18 -14 -6 -17 18 -70 117 -78 145
-3 11 -9 28 -13 38 -5 12 -2 17 9 17 14 0 15 4 5 21 -10 19 -40 181 -37 197 1
4 -2 24 -7 45 -4 23 -3 47 3 60 22 48 23 59 1 64 -16 4 -19 11 -14 27 4 11 9
35 12 51 2 17 7 37 10 45 3 8 5 25 4 37 -2 17 2 21 13 17 10 -4 18 1 22 12 3
11 12 31 20 46 8 16 11 28 6 28 -14 0 -3 41 16 63 12 13 12 17 2 17 -10 0 -9
4 3 18 16 17 13 67 -4 78 -5 3 -23 -23 -40 -58 -17 -35 -38 -75 -46 -90 -21
-41 -61 -253 -63 -333 -1 -38 -4 -91 -7 -116 -5 -44 32 -220 56 -267 14 -27
29 -64 42 -104 7 -21 19 -38 27 -38 8 0 12 -6 8 -15 -3 -8 -1 -15 4 -15 6 0
10 -7 10 -15 0 -16 31 -64 62 -96 15 -16 16 -15 21 9 3 16 -1 34 -9 43 -8 8
-14 22 -14 29 0 7 11 1 25 -14 13 -14 28 -26 33 -26 6 0 13 -8 16 -17 6 -14
15 -8 52 31 37 38 48 45 60 35 8 -6 14 -17 14 -24 0 -7 6 -18 14 -24 19 -16
28 -51 11 -44 -19 7 -47 -51 -39 -82 3 -14 10 -25 15 -25 5 0 9 -9 9 -19 0
-11 4 -22 10 -26 5 -3 7 -12 4 -20 -4 -8 1 -18 10 -21 9 -3 16 -12 16 -19 0
-7 7 -18 15 -25 13 -11 20 -9 40 10 26 25 31 17 15 -24 -11 -30 4 -45 19 -19
15 27 13 7 -4 -34 -18 -42 -18 -46 -6 -38 10 5 251 -20 301 -32 27 -7 33 -4
-87 -31 l-38 -9 45 -6 c25 -3 54 -5 65 -4 11 1 103 -4 205 -11 265 -19 295
-20 600 -29 281 -8 1111 -11 1165 -4 17 3 49 1 73 -4 37 -7 40 -9 25 -20 -9
-7 -23 -10 -31 -8 -7 3 -19 -3 -27 -13 -13 -18 -14 -18 -20 -2 -5 14 -11 15
-25 8 -13 -7 -20 -6 -23 3 -4 9 -7 9 -17 0 -11 -10 -8 -14 13 -22 15 -6 27
-13 27 -16 0 -4 -5 -3 -11 1 -7 4 -10 -4 -9 -22 4 -60 1 -71 -22 -70 -15 1
-24 -6 -28 -24 -4 -19 -7 -21 -12 -9 -3 9 -2 22 2 30 9 13 -5 39 -20 39 -4 0
-11 -16 -15 -36 -3 -20 -18 -47 -32 -60 -29 -27 -48 -31 -40 -10 7 16 -18 54
-28 44 -15 -15 7 -55 50 -88 25 -19 45 -40 45 -46 0 -6 12 -17 26 -24 23 -13
27 -12 36 4 9 17 11 17 25 -3 19 -29 45 -28 41 2 -1 12 2 22 7 22 6 0 10 -5 9
-10 -1 -7 27 -10 74 -9 60 2 78 -1 88 -14 11 -15 13 -15 28 0 11 11 26 15 48
11 18 -4 47 -6 63 -5 81 3 156 11 211 21 56 10 276 23 399 22 28 0 65 0 83 0
53 0 72 3 72 11 0 14 26 8 74 -17 26 -14 54 -25 62 -25 22 0 16 18 -8 24 -13
2 -4 4 20 3 23 -2 42 1 42 5 0 5 10 8 21 8 18 0 19 -3 9 -15 -6 -8 -9 -19 -5
-25 9 -15 35 -12 41 5 7 16 34 21 34 6 0 -5 16 -12 35 -15 58 -11 41 -38 -25
-40 -21 -1 -45 -8 -54 -15 -14 -11 -16 -11 -16 2 0 9 -4 19 -10 22 -10 6 -50
16 -50 12 -1 -16 -29 -77 -30 -65 0 22 -37 33 -55 18 -12 -10 -15 -9 -15 8 0
11 -11 27 -25 36 -23 15 -25 15 -34 -3 -7 -12 -26 -20 -58 -24 -26 -4 -58 -9
-71 -13 -19 -6 -23 -3 -20 12 2 14 -4 20 -24 22 -22 3 -28 -1 -28 -16 0 -15
-6 -18 -30 -14 -18 3 -30 0 -30 -7 0 -17 -14 -13 -39 10 -15 14 -26 18 -34 11
-7 -6 -16 -10 -22 -10 -20 -1 -30 -31 -17 -52 14 -23 15 -30 3 -30 -5 0 -12
11 -15 24 -6 23 -46 44 -46 24 0 -6 -12 -8 -32 -4 -22 4 -37 1 -50 -10 -21
-20 -25 -83 -5 -85 26 -2 63 3 80 12 10 6 17 6 17 1 0 -13 -26 -33 -32 -26 -4
3 -22 1 -42 -4 -28 -8 -36 -8 -36 3 0 7 -7 16 -16 19 -12 5 -15 14 -10 37 4
20 1 35 -8 45 -19 18 -37 10 -59 -24 -10 -16 -17 -21 -17 -12 0 8 -9 21 -21
28 -18 12 -24 11 -43 -6 -11 -11 -26 -18 -32 -15 -7 2 -21 -8 -32 -22 -25 -32
-35 -32 -57 1 -11 18 -20 22 -28 16 -14 -12 -15 -12 -62 -12 -30 0 -35 -4 -35
-22 0 -13 -7 -32 -15 -42 -14 -18 -15 -17 -15 22 0 38 -2 42 -25 42 -14 0 -25
-4 -25 -10 0 -5 -13 -7 -30 -4 -16 4 -41 3 -55 0 -20 -5 -25 -13 -26 -39 -1
-30 -2 -30 -8 -7 -12 44 -101 66 -101 25 0 -10 -15 -12 -67 -8 -79 5 -128 18
-165 44 -34 24 -65 24 -80 0 -7 -11 -18 -17 -27 -13 -13 4 -12 1 3 -16 11 -12
27 -22 36 -22 20 0 45 -26 45 -46 0 -20 104 -93 144 -100 73 -13 67 -25 -11
-22 -43 2 -78 1 -78 -2 0 -12 25 -30 42 -30 10 0 18 -7 18 -15 0 -21 -17 -19
-47 5 -33 26 -44 17 -13 -10 l23 -20 -30 0 c-17 0 -36 7 -43 15 -7 8 -24 15
-37 15 -14 0 -36 9 -50 20 -50 39 -59 19 -13 -30 17 -18 30 -36 30 -40 0 -12
-78 -17 -96 -7 -12 7 -15 6 -12 -4 4 -12 110 -14 623 -16 429 -1 623 1 632 9
9 7 13 7 13 -1 0 -17 41 -13 57 7 13 16 15 16 25 1 10 -15 16 -15 64 2 30 11
68 19 87 19 18 0 39 6 46 13 10 10 16 7 31 -13 18 -24 19 -24 33 -6 11 16 26
19 73 19 34 0 65 5 74 12 21 18 77 28 85 16 9 -16 21 -14 41 7 11 11 35 17 63
18 25 1 69 7 96 14 28 7 58 12 68 12 9 -1 17 4 17 9 0 6 5 7 11 3 6 -3 24 3
40 15 25 19 30 20 35 6 8 -20 58 -20 75 1 8 9 21 13 35 10 13 -4 26 -2 29 4 3
5 19 10 35 10 16 0 31 4 35 9 3 6 13 9 23 9 9 0 46 5 82 11 58 11 151 19 247
23 18 1 34 7 36 13 3 6 33 11 76 10 48 0 72 4 76 13 2 6 14 12 25 12 12 0 30
5 41 10 14 8 25 7 41 -4 20 -14 24 -14 43 3 11 10 37 21 58 23 35 4 48 -4 27
-17 -14 -9 -12 -25 3 -25 15 0 40 37 33 49 -8 12 48 0 56 -13 6 -8 8 -8 8 0 0
7 11 9 27 6 22 -4 25 -2 19 13 -5 15 -4 16 9 5 12 -10 18 -10 29 -1 12 10 17
8 26 -10 7 -12 15 -18 19 -13 3 5 19 16 35 24 23 12 30 12 33 3 3 -7 9 -13 14
-13 6 0 8 4 5 9 -3 4 6 13 19 19 14 6 27 7 30 2 7 -11 64 -10 71 2 6 10 34 11
33 1 -3 -19 2 -33 11 -33 6 0 10 6 10 14 0 8 14 22 32 30 39 20 52 20 44 0 -5
-12 0 -15 22 -12 22 2 26 7 24 25 -2 13 2 23 9 23 7 0 10 -11 7 -30 -3 -17 -1
-30 3 -30 4 0 15 -3 23 -6 11 -4 15 -2 11 8 -7 18 20 42 35 33 8 -5 8 -11 -1
-21 -6 -8 -7 -14 -2 -14 5 0 17 9 26 21 13 14 25 19 42 15 14 -4 27 0 35 9 17
20 33 19 54 -4 17 -19 17 -19 -5 -14 l-23 6 22 -23 c22 -24 30 -25 112 -17 14
1 28 6 31 11 10 12 31 -4 25 -19 -3 -8 2 -11 15 -8 22 6 26 23 4 23 -8 0 -15
5 -15 10 0 18 33 11 57 -12 l23 -21 0 252 c0 166 -3 250 -10 246 -5 -3 -10 -2
-10 4 0 5 5 13 10 16 6 3 10 29 10 56 l0 51 -28 -29 c-16 -15 -31 -36 -35 -45
-10 -28 -33 -21 -56 17 -11 19 -25 35 -31 35 -17 0 -22 -27 -10 -50 9 -18 8
-25 -6 -41 -9 -10 -26 -19 -37 -19 -15 0 -18 5 -15 25 5 23 2 25 -32 25 -46 0
-53 -7 -35 -34 14 -21 10 -66 -6 -66 -12 0 -18 14 -21 49 -1 17 -8 31 -15 31
-7 0 -13 -4 -13 -10 0 -24 -18 -7 -22 20 -3 16 -1 30 4 30 4 0 8 11 8 24 0 13
6 26 13 29 40 15 -66 49 -151 48 -19 0 -30 4 -26 10 10 17 -37 60 -58 53 -10
-3 -18 -1 -18 5 0 6 -4 11 -10 11 -5 0 -10 -8 -10 -19 0 -10 -7 -25 -16 -32
-14 -11 -18 -11 -29 4 -7 11 -26 17 -48 17 -41 0 -57 -15 -25 -23 34 -9 13
-20 -33 -19 -23 1 -49 -4 -57 -11 -9 -7 -47 -12 -94 -13 -70 -1 -78 1 -73 17
5 13 1 16 -14 12 -11 -3 -26 -11 -32 -19 -6 -8 -19 -14 -28 -14 -24 0 -65 46
-58 64 8 20 -3 27 -24 15 -25 -13 -24 -36 1 -44 27 -9 25 -19 -5 -33 -37 -17
-45 -15 -45 13 0 21 -5 25 -30 25 -21 0 -28 4 -24 14 6 16 -12 56 -25 56 -5 0
-12 -12 -15 -26 -5 -17 -12 -24 -21 -20 -8 3 -19 -3 -24 -12 -6 -10 -11 -12
-11 -4 0 7 5 21 12 31 14 22 -9 141 -29 148 -7 3 -13 10 -13 16 0 6 -17 45
-37 87 -82 165 -221 247 -558 330 -49 12 -92 24 -94 26 -7 7 32 44 46 44 7 0
13 4 13 10 0 16 57 40 98 40 44 0 58 9 96 66 25 38 32 42 80 48 39 5 59 14 79
35 27 29 27 29 7 53 -34 44 -35 71 -1 96 28 21 31 27 31 81 0 43 -5 65 -20 84
-37 46 -45 88 -45 217 l0 125 28 3 c15 2 27 6 27 10 0 10 -49 83 -75 112 -18
20 -55 90 -55 105 0 2 11 6 25 9 48 12 15 76 -47 91 -20 5 -28 14 -28 29 -1
47 -49 220 -69 247 -11 15 -21 32 -21 36 0 5 -23 42 -52 83 -41 59 -94 170
-85 176 1 1 58 -6 127 -16 192 -26 613 -16 725 17 36 11 118 16 290 20 223 4
301 12 440 43 33 8 91 9 170 4 66 -4 155 -8 198 -10 l77 -2 0 326 0 327 -80 0
c-58 0 -83 4 -89 14 -5 7 -13 11 -18 8 -5 -3 -36 -7 -68 -8 -43 -2 -69 -9 -94
-26 -39 -27 -70 -29 -110 -9 -29 16 -60 55 -66 85 -2 9 -13 35 -24 57 -57 109
-65 305 -19 429 14 39 36 102 48 140 12 39 39 108 61 154 21 46 39 86 39 88 0
2 -32 3 -71 1 l-71 -3 -28 -78 c-15 -42 -42 -101 -61 -130 -56 -88 -97 -174
-110 -231 -10 -47 -9 -70 5 -153 23 -124 22 -362 0 -409 -30 -62 -188 -91
-252 -46 -25 18 -31 33 -46 109 -10 50 -45 158 -81 248 -35 88 -75 203 -89
255 -14 52 -39 135 -55 183 -36 112 -30 152 32 215 l41 42 -132 0 c-73 0 -132
-4 -132 -9z m49 -557 c22 -28 28 -78 11 -89 -5 -3 -20 -3 -34 1 -35 8 -52 59
-31 91 20 30 29 29 54 -3z m233 -522 c10 -15 26 -38 37 -52 34 -44 34 -63 -2
-87 -45 -31 -60 -29 -80 12 -21 44 -21 75 -3 120 18 42 26 43 48 7z m-1604
-10 c2 -7 -3 -12 -12 -12 -9 0 -16 7 -16 16 0 17 22 14 28 -4z m167 -22 c3 -5
-1 -10 -10 -10 -9 0 -13 5 -10 10 3 6 8 10 10 10 2 0 7 -4 10 -10z m159 -89
c4 -5 1 -11 -6 -13 -25 -9 5 -30 33 -24 30 6 35 1 20 -23 -7 -11 -15 -10 -45
8 -21 13 -36 31 -36 42 0 19 24 26 34 10z m-2198 -38 c-11 -11 -19 6 -11 24 8
17 8 17 12 0 3 -10 2 -21 -1 -24z m1449 27 c3 -5 17 -10 30 -10 31 0 41 -18
22 -37 -13 -14 -17 -13 -32 11 -12 19 -23 25 -36 21 -19 -6 -26 5 -12 18 9 10
21 9 28 -3z m-1051 -74 c1 -25 -1 -46 -4 -46 -9 0 -31 90 -24 102 12 19 26 -9
28 -56z m-300 10 c-7 -19 -45 -18 -52 2 -4 14 39 34 51 23 4 -4 5 -15 1 -25z
m2203 28 c-3 -3 -12 -4 -19 -1 -8 3 -5 6 6 6 11 1 17 -2 13 -5z m-173 -49 c3
-9 0 -15 -9 -15 -8 0 -15 7 -15 15 0 8 4 15 9 15 5 0 11 -7 15 -15z m-551 -40
c12 -26 23 -35 41 -35 28 0 52 -32 61 -84 7 -34 44 -76 68 -76 15 0 57 -41 57
-55 0 -20 36 -46 74 -52 20 -3 36 -10 36 -15 0 -4 11 -13 25 -18 14 -5 25 -13
25 -18 0 -5 11 -14 25 -20 14 -6 25 -18 25 -27 0 -17 -9 -19 -43 -6 -19 8 -29
5 -46 -10 -11 -11 -22 -17 -22 -14 -1 3 -2 11 -3 18 0 6 -11 13 -23 15 -14 2
-29 18 -43 47 -25 51 -50 77 -50 51 0 -17 -25 -22 -35 -6 -10 16 -48 5 -55
-15 -6 -18 -7 -18 -14 0 -9 24 23 53 35 33 6 -9 11 -5 17 12 12 31 7 40 -18
33 -11 -3 -27 -2 -36 1 -16 6 -15 8 2 21 12 9 14 14 6 15 -7 0 -10 5 -7 10 4
6 -5 5 -19 -2 -14 -6 -26 -15 -26 -19 0 -4 -11 -2 -24 4 -32 15 -23 27 20 27
19 0 34 2 34 5 0 5 -36 57 -107 156 -38 54 -40 59 -15 59 11 0 25 -14 35 -35z
m1131 -55 c48 -20 85 -72 73 -102 -3 -8 -36 -22 -74 -32 -37 -9 -76 -21 -85
-26 -12 -7 -25 -2 -47 19 -17 16 -31 33 -31 38 0 22 82 123 100 123 10 0 39
-9 64 -20z m-2276 -61 c7 -42 9 -44 41 -44 36 0 69 -33 43 -42 -7 -3 -19 -12
-28 -20 -13 -14 -16 -14 -29 3 -8 11 -15 26 -15 35 0 9 -3 19 -7 23 -11 11
-31 84 -25 91 9 8 12 0 20 -46z m1897 41 c3 -5 1 -10 -4 -10 -6 0 -11 5 -11
10 0 6 2 10 4 10 3 0 8 -4 11 -10z m-715 -55 c0 -8 -4 -15 -10 -15 -5 0 -10 7
-10 15 0 8 5 15 10 15 6 0 10 -7 10 -15z m-1548 -39 c-3 -5 -9 -1 -13 10 -12
31 -10 39 5 19 8 -11 12 -24 8 -29z m658 19 c-7 -8 -17 -12 -23 -8 -6 4 -3 9
9 14 27 11 28 11 14 -6z m790 5 c0 -5 -2 -10 -4 -10 -3 0 -8 5 -11 10 -3 6 -1
10 4 10 6 0 11 -4 11 -10z m-450 -25 c10 -12 10 -15 -4 -15 -9 0 -16 7 -16 15
0 8 2 15 4 15 2 0 9 -7 16 -15z m-965 -25 c4 -6 14 -10 23 -9 10 1 29 -3 44
-9 15 -6 39 -10 55 -9 24 2 28 -1 25 -22 -1 -14 1 -22 4 -18 13 12 44 -14 44
-36 0 -30 -27 -66 -37 -51 -8 11 -20 11 -85 -1 -31 -6 -38 -5 -38 9 0 9 -4 16
-10 16 -5 0 -10 9 -10 19 0 10 -7 22 -16 25 -9 4 -12 11 -7 18 9 16 5 48 -9
66 -7 8 -7 12 0 12 6 0 14 -5 17 -10z m317 -25 c4 -36 -5 -47 -16 -19 -6 15 1
54 9 54 1 0 5 -16 7 -35z m2088 15 c9 -16 8 -22 -6 -27 -16 -6 -34 11 -34 35
0 19 28 14 40 -8z m-960 0 c0 -5 -4 -10 -10 -10 -5 0 -10 5 -10 10 0 6 5 10
10 10 6 0 10 -4 10 -10z m45 -39 c3 -5 1 -12 -5 -16 -5 -3 -10 1 -10 9 0 18 6
21 15 7z m-422 -21 c-3 -12 -8 -19 -11 -16 -5 6 5 36 12 36 2 0 2 -9 -1 -20z
m-1213 -25 c0 -8 -9 -15 -20 -15 -13 0 -18 5 -14 15 4 8 12 15 20 15 8 0 14
-7 14 -15z m558 -20 c-3 -3 -9 2 -12 12 -6 14 -5 15 5 6 7 -7 10 -15 7 -18z
m-568 -24 c0 -14 -5 -18 -20 -14 -19 5 -20 6 -3 19 23 17 23 17 23 -5z m2103
13 c9 -10 -4 -34 -19 -34 -8 0 -14 9 -14 20 0 19 19 27 33 14z m417 -43 c0
-11 4 -22 10 -26 5 -3 7 -12 4 -19 -3 -7 6 -21 20 -30 14 -9 35 -33 45 -54 11
-20 20 -32 21 -27 1 18 20 -19 20 -39 0 -20 0 -20 -15 0 -9 12 -14 14 -15 6 0
-7 -4 -11 -10 -7 -5 3 -7 12 -3 20 3 9 -1 15 -10 15 -29 0 -24 -34 8 -65 18
-16 35 -43 39 -60 4 -16 11 -32 15 -35 5 -3 20 -24 35 -47 14 -24 31 -43 36
-43 6 0 10 -8 10 -17 0 -14 -3 -13 -16 5 -18 26 -44 29 -44 6 0 -10 -6 -14
-15 -11 -21 9 -29 -12 -12 -31 8 -9 12 -23 10 -29 -3 -7 0 -13 6 -13 16 0 13
-27 -3 -33 -24 -9 -126 119 -126 158 0 15 28 -10 39 -35 13 -31 51 -60 51 -40
0 5 -4 10 -9 10 -4 0 -6 11 -4 25 5 22 35 42 56 37 4 -1 3 7 -4 19 -6 12 -18
23 -27 26 -10 2 -24 19 -33 36 -9 18 -25 37 -37 43 -12 6 -33 23 -47 39 -27
29 -88 145 -80 153 2 2 16 -5 31 -17 52 -41 67 -16 29 45 -9 13 -10 26 -3 37
12 23 28 22 28 -2z m-3060 -56 c6 -8 9 -23 5 -34 -5 -16 -2 -19 13 -16 10 2
24 0 31 -5 16 -9 3 -19 -48 -37 l-33 -11 6 29 c4 20 2 28 -5 23 -7 -4 -10 3
-9 17 5 53 1 60 -20 49 -14 -8 -20 -8 -20 0 0 6 -5 8 -11 4 -7 -4 -10 -1 -7 7
3 8 14 14 26 14 12 0 27 6 34 13 10 10 14 8 20 -13 3 -15 12 -33 18 -40z m160
55 c0 -5 -5 -10 -11 -10 -5 0 -7 5 -4 10 3 6 8 10 11 10 2 0 4 -4 4 -10z m285
-30 c3 -5 1 -10 -4 -10 -6 0 -11 5 -11 10 0 6 2 10 4 10 3 0 8 -4 11 -10z
m299 -6 c3 -8 2 -12 -4 -9 -6 3 -10 10 -10 16 0 14 7 11 14 -7z m-854 -19 c0
-20 -5 -25 -24 -25 -34 0 -41 16 -14 34 31 22 38 20 38 -9z m2170 11 c0 -3 -4
-8 -10 -11 -5 -3 -10 -1 -10 4 0 6 5 11 10 11 6 0 10 -2 10 -4z m73 -11 c-3
-17 -30 -17 -37 0 -4 13 -1 16 17 13 12 -2 21 -7 20 -13z m1083 -22 c42 -36
54 -53 35 -53 -15 0 -90 64 -90 78 -1 19 6 15 55 -25z m-3428 7 c-11 -17 -38
-28 -38 -16 0 18 15 36 31 36 17 0 18 -3 7 -20z m812 16 c0 -3 -4 -8 -10 -11
-5 -3 -10 -1 -10 4 0 6 5 11 10 11 6 0 10 -2 10 -4z m1575 -6 c3 -5 1 -10 -4
-10 -6 0 -11 5 -11 10 0 6 2 10 4 10 3 0 8 -4 11 -10z m-2355 -30 c0 -5 -5
-10 -11 -10 -5 0 -7 5 -4 10 3 6 8 10 11 10 2 0 4 -4 4 -10z m-140 -19 c0 -18
-18 -21 -30 -6 -10 13 -9 15 9 15 11 0 21 -4 21 -9z m1250 -1 c13 -8 13 -10
-2 -10 -9 0 -20 5 -23 10 -8 13 5 13 25 0z m194 -99 c-3 -14 0 -28 8 -33 9 -6
10 -10 2 -15 -14 -10 -17 -193 -3 -193 5 0 7 -14 5 -32 -2 -17 3 -46 10 -64
17 -41 19 -159 3 -131 -14 24 -42 195 -34 207 4 6 2 10 -3 10 -5 0 -13 10 -17
23 -8 21 -8 21 -12 -5 -4 -29 -9 -31 -55 -28 -16 1 -28 -3 -28 -9 0 -6 7 -8
15 -5 8 3 23 0 33 -8 20 -13 20 -14 1 -37 -14 -17 -25 -22 -43 -17 -30 7 -69
65 -55 82 7 9 4 14 -10 19 -12 3 -21 12 -21 19 0 7 -9 21 -20 31 -20 18 -21
18 -46 -7 -23 -23 -24 -26 -10 -41 9 -9 13 -23 9 -33 -4 -10 -2 -15 3 -11 5 3
8 -11 6 -34 -2 -21 -6 -39 -8 -39 -2 0 -15 24 -30 53 -14 28 -37 66 -50 84
-52 69 -90 151 -109 238 l-7 30 21 -24 c12 -14 24 -35 27 -48 4 -12 10 -21 15
-18 10 7 28 -26 22 -42 -3 -7 4 -10 19 -6 21 4 21 3 7 -9 -26 -22 -2 -46 39
-40 38 5 38 7 12 50 -16 26 -17 32 -5 32 8 0 15 -4 15 -10 0 -5 7 -7 15 -4 8
4 15 2 15 -3 0 -16 45 -63 59 -63 15 0 78 -36 99 -56 6 -7 12 -20 12 -28 0
-22 29 -20 37 2 3 9 11 23 17 30 12 16 8 104 -4 112 -11 7 9 90 22 90 5 0 8 8
7 18 -4 41 3 56 12 22 5 -19 6 -46 3 -59z m-1220 64 c-4 -10 -13 -13 -24 -10
-10 3 -21 1 -25 -5 -7 -11 -45 -14 -45 -4 0 15 37 33 67 34 25 0 31 -3 27 -15z
m-479 -24 c-3 -6 -14 -11 -23 -11 -15 1 -15 2 2 15 21 16 32 13 21 -4z m265 7
c0 -4 -4 -10 -10 -13 -5 -3 -10 -18 -10 -33 -1 -30 -13 -15 -23 28 -5 21 -3
25 18 25 14 0 25 -3 25 -7z m3231 -51 c-10 -9 -11 -8 -5 6 3 10 9 15 12 12 3
-3 0 -11 -7 -18z m-1576 -35 c-3 -3 -11 0 -18 7 -9 10 -8 11 6 5 10 -3 15 -9
12 -12z m535 8 c0 -5 -4 -10 -10 -10 -5 0 -10 5 -10 10 0 6 5 10 10 10 6 0 10
-4 10 -10z m-490 -20 c0 -5 -2 -10 -4 -10 -3 0 -8 5 -11 10 -3 6 -1 10 4 10 6
0 11 -4 11 -10z m544 -36 c3 -8 2 -12 -4 -9 -6 3 -10 10 -10 16 0 14 7 11 14
-7z m-430 -22 c9 -5 -13 -22 -29 -22 -6 0 -16 9 -23 20 -12 19 -11 20 15 14
16 -4 32 -9 37 -12z m189 -1 c4 -1 7 -5 7 -10 0 -10 -48 -2 -56 10 -3 5 5 7
18 5 13 -3 26 -5 31 -5z m299 -26 c6 -13 15 -22 20 -19 11 7 92 -32 108 -52 7
-7 19 -14 27 -14 8 0 27 -8 41 -19 15 -10 42 -22 60 -26 18 -3 30 -11 27 -15
-6 -10 30 -51 38 -43 3 2 31 -7 63 -22 37 -17 53 -29 46 -34 -7 -4 -10 -16 -6
-27 5 -17 4 -17 -13 2 -13 16 -23 20 -38 14 -15 -7 -16 -9 -4 -9 24 -1 33 -33
14 -47 -8 -6 -13 -18 -9 -27 3 -10 -2 -17 -14 -21 -18 -6 -19 -10 -7 -34 7
-15 15 -38 18 -52 6 -25 5 -26 -48 -26 -38 -1 -56 3 -59 13 -3 8 -11 11 -16 8
-7 -4 -9 2 -4 19 6 24 -10 39 -18 17 -1 -5 -16 1 -31 15 -25 22 -27 26 -13 40
9 8 20 23 26 32 10 16 12 15 26 -5 9 -13 25 -23 35 -23 11 0 19 -6 20 -12 0
-10 2 -10 6 0 2 6 11 12 19 12 16 0 19 26 4 35 -5 3 -18 1 -29 -4 -14 -8 -22
-7 -31 4 -6 7 -25 17 -43 21 -26 5 -28 8 -15 18 23 17 32 55 14 62 -8 3 -12
12 -9 20 3 9 -1 14 -12 14 -9 0 -19 9 -22 20 -7 25 -43 27 -43 3 -1 -17 -1
-17 -10 -1 -6 10 -18 14 -30 11 -13 -4 -22 1 -27 13 -3 11 -19 34 -35 52 -15
18 -28 39 -28 46 0 7 -9 25 -21 40 -17 22 -18 26 -5 26 9 0 21 -11 28 -25z
m-931 -8 c-10 -9 -11 -8 -5 6 3 10 9 15 12 12 3 -3 0 -11 -7 -18z m1829 -15
c0 -15 -2 -15 -10 -2 -13 20 -13 33 0 25 6 -3 10 -14 10 -23z m-1134 -3 c9
-15 -23 -10 -35 5 -10 12 -8 13 9 9 11 -3 23 -9 26 -14z m947 -3 c16 -12 14
-13 -15 -11 -18 1 -34 7 -36 14 -5 15 29 13 51 -3z m-1002 -56 c5 0 9 -4 9
-10 0 -5 -13 -8 -28 -7 -54 6 -72 33 -24 39 15 2 28 -2 30 -9 2 -7 8 -13 13
-13z m127 -19 c-9 -15 -15 -17 -26 -9 -10 9 -11 13 0 19 7 5 19 9 26 9 10 0
10 -4 0 -19z m-570 -21 c6 -11 34 -31 60 -44 27 -13 54 -32 61 -40 8 -9 20
-16 28 -16 38 0 153 -81 153 -108 0 -6 9 -16 21 -22 11 -7 18 -14 15 -17 -3
-3 6 -21 21 -39 24 -32 21 -40 -10 -35 -4 1 -5 -16 -2 -36 l6 -38 -20 25 c-11
14 -21 30 -21 36 0 16 -30 40 -30 25 0 -8 -6 -7 -20 1 -17 11 -22 10 -30 -2
-5 -8 -6 -18 -4 -22 7 -12 -34 -10 -57 2 -29 16 -23 27 11 22 23 -3 30 0 30
12 0 10 7 16 17 14 10 -2 19 4 21 15 2 10 -3 17 -12 17 -8 0 -16 10 -18 22 -2
14 -12 22 -27 25 -30 4 -41 14 -23 20 10 4 8 9 -5 19 -21 16 -37 18 -28 4 3
-5 3 -21 -1 -35 -5 -20 -9 -23 -20 -14 -8 6 -11 16 -7 22 4 6 -2 8 -15 5 -19
-5 -22 -2 -22 22 0 16 -4 32 -10 35 -5 3 -10 15 -10 25 0 10 -6 23 -12 27 -12
7 -41 46 -62 81 -12 20 8 13 22 -8z m-333 -8 c-3 -3 -11 0 -18 7 -9 10 -8 11
6 5 10 -3 15 -9 12 -12z m-160 -12 c-3 -5 -12 -10 -18 -10 -7 0 -6 4 3 10 19
12 23 12 15 0z m1175 -21 c0 -6 -4 -7 -10 -4 -5 3 -10 11 -10 16 0 6 5 7 10 4
6 -3 10 -11 10 -16z m-1640 -41 c14 -40 24 -169 11 -149 -5 7 -14 10 -21 6 -6
-4 -41 -8 -78 -9 -37 -1 -92 -6 -122 -10 -43 -7 -53 -6 -44 4 7 6 24 13 38 13
18 2 26 8 26 21 0 12 -5 16 -15 12 -8 -3 -18 0 -22 7 -5 7 -15 12 -23 12 -8 0
-15 7 -15 15 -1 8 -5 14 -10 13 -6 0 -16 5 -23 13 -11 12 -10 14 5 14 10 0 29
6 43 13 16 8 38 10 60 6 19 -4 42 -3 52 2 14 7 20 6 24 -6 3 -8 11 -15 17 -15
6 0 19 -8 30 -17 19 -17 20 -17 14 5 -4 18 -2 22 9 18 10 -4 14 3 14 29 0 44
14 45 30 3z m1801 -5 c7 -19 6 -29 -2 -37 -9 -8 -10 -8 -5 1 3 6 2 14 -4 18
-5 3 -15 15 -20 26 -9 15 -7 19 5 19 8 0 20 -12 26 -27z m832 11 c18 -9 42
-26 55 -37 19 -18 22 -18 22 -4 0 9 5 17 11 17 8 0 7 5 -1 15 -7 9 -10 18 -7
21 10 10 58 -49 64 -79 4 -20 8 -25 14 -15 7 10 9 9 9 -5 0 -10 5 -15 11 -11
6 3 10 -1 9 -12 -1 -11 -1 -22 0 -26 1 -5 3 -14 4 -20 1 -7 12 -12 24 -11 18
2 22 -2 23 -30 1 -17 1 -37 0 -44 -1 -6 3 -14 9 -18 12 -8 13 -45 1 -45 -5 0
-26 26 -47 57 -86 127 -148 193 -175 186 -14 -4 -20 -1 -19 8 4 29 -1 39 -27
53 -38 20 -20 20 20 0z m297 -8 c0 -8 -4 -17 -9 -21 -12 -7 -24 12 -16 25 9
15 25 12 25 -4z m-1400 -6 c0 -5 -4 -10 -9 -10 -6 0 -13 5 -16 10 -3 6 1 10 9
10 9 0 16 -4 16 -10z m-1189 -153 c-7 -7 -41 98 -41 127 0 8 6 16 13 19 14 4
40 -132 28 -146z m2273 112 c-8 -13 -44 9 -44 27 0 12 4 12 25 -2 14 -9 22
-20 19 -25z m-2352 -8 c-9 -6 -10 -14 -3 -34 12 -32 3 -69 -10 -45 -5 9 -7 25
-4 37 2 11 -1 21 -7 21 -5 0 -8 7 -4 15 3 8 1 15 -5 15 -5 0 -4 6 3 14 11 13
15 12 28 0 12 -12 12 -16 2 -23z m-773 -18 c19 -66 15 -83 -16 -79 -16 2 -37
0 -48 -5 -12 -4 -14 -8 -5 -8 9 -1 11 -4 4 -11 -7 -7 -21 -6 -45 4 -19 9 -26
15 -17 16 13 0 16 7 13 30 -5 38 10 39 21 3 5 -22 8 -24 11 -10 3 10 15 29 29
42 13 13 24 31 24 40 0 29 19 15 29 -22z m721 17 c0 -5 -4 -10 -10 -10 -5 0
-10 5 -10 10 0 6 5 10 10 10 6 0 10 -4 10 -10z m3016 -117 c-10 -10 -35 44
-41 87 l-5 45 25 -64 c14 -35 24 -66 21 -68z m-3846 91 c0 -2 -9 -8 -19 -13
-16 -9 -18 -8 -14 8 3 12 11 17 19 14 8 -3 14 -7 14 -9z m2480 -24 c0 -5 -2
-10 -4 -10 -3 0 -8 5 -11 10 -3 6 -1 10 4 10 6 0 11 -4 11 -10z m295 1 c3 -6
7 -27 9 -48 2 -21 6 -45 10 -53 8 -22 -8 -42 -28 -34 -10 4 -15 13 -11 24 3
10 1 21 -5 25 -7 4 -7 12 0 25 12 22 -11 46 -35 36 -18 -7 -19 0 -2 19 14 16
53 20 62 6z m-2821 -37 c6 -16 -25 -32 -59 -30 -30 2 -33 43 -3 48 33 5 56 -2
62 -18z m-229 -14 c3 -5 1 -10 -4 -10 -6 0 -11 5 -11 10 0 6 2 10 4 10 3 0 8
-4 11 -10z m2603 -15 c-3 -3 -9 2 -12 12 -6 14 -5 15 5 6 7 -7 10 -15 7 -18z
m1368 -6 c3 -6 1 -16 -5 -22 -9 -9 -14 -8 -21 3 -9 15 -4 30 10 30 5 0 12 -5
16 -11z m-2196 -34 c0 -14 -4 -25 -10 -25 -11 0 -14 33 -3 43 11 11 13 8 13
-18z m-940 -5 c0 -5 -2 -10 -4 -10 -3 0 -8 5 -11 10 -3 6 -1 10 4 10 6 0 11
-4 11 -10z m1387 -62 c-3 -8 -6 -5 -6 6 -1 11 2 17 5 13 3 -3 4 -12 1 -19z
m793 8 c0 -7 -8 -16 -19 -19 -14 -3 -17 0 -14 14 6 22 33 26 33 5z m-2576 -58
c4 -21 12 -38 18 -38 6 0 8 -10 4 -26 -5 -17 -3 -23 4 -19 11 7 40 -17 40 -33
0 -22 29 -19 50 5 15 17 25 22 32 15 13 -13 39 -4 55 18 23 32 88 53 139 45
34 -5 43 -10 35 -18 -17 -17 -13 -27 8 -27 11 0 23 -4 26 -10 3 -5 19 -10 36
-10 16 0 29 5 29 10 0 6 -4 10 -10 10 -5 0 -19 9 -30 20 -18 18 -19 21 -4 27
9 3 29 6 45 7 27 1 29 4 29 39 0 23 4 36 10 32 6 -3 10 -24 10 -45 0 -21 5
-42 10 -45 6 -3 7 -17 4 -31 -7 -29 12 -33 21 -4 3 11 11 20 16 20 6 0 2 -13
-7 -30 -20 -34 -11 -53 11 -24 8 10 15 15 15 10 0 -13 -41 -56 -54 -56 -6 0
-4 5 4 10 13 8 13 10 -2 10 -17 0 -33 -33 -23 -49 3 -5 1 -12 -4 -15 -5 -4
-13 -1 -16 5 -9 14 -45 -24 -45 -49 0 -27 -25 -58 -35 -43 -4 7 -2 18 4 24 17
17 13 31 -4 17 -8 -7 -15 -20 -15 -29 0 -9 -5 -22 -12 -29 -9 -9 -8 -12 8 -12
11 0 25 5 31 11 14 14 47 4 38 -11 -3 -5 -15 -10 -26 -10 -21 0 -55 -62 -44
-80 8 -13 -18 -18 -36 -7 -13 8 -15 17 -8 40 5 16 6 34 2 40 -3 5 0 13 7 17 7
4 9 16 6 28 -5 16 -15 20 -44 19 -34 -2 -37 0 -42 30 -5 34 -20 33 -34 -2 -8
-19 -8 -19 -19 3 -5 12 -16 22 -23 22 -7 0 -18 8 -24 18 -7 11 -13 13 -16 6
-3 -7 -13 -10 -24 -7 -15 4 -18 0 -15 -19 2 -12 9 -38 16 -55 10 -26 11 -35 1
-45 -9 -9 -12 -9 -12 4 0 9 -20 38 -45 66 -25 27 -45 53 -45 58 0 4 -6 15 -13
23 -19 22 -57 158 -57 201 1 42 14 24 24 -32z m2636 52 c0 -5 -4 -10 -10 -10
-5 0 -10 5 -10 10 0 6 5 10 10 10 6 0 10 -4 10 -10z m-929 -20 c13 -11 18 -19
11 -20 -7 0 -12 -6 -10 -14 2 -8 -1 -14 -7 -13 -5 1 -9 13 -7 27 3 20 1 23 -9
13 -19 -19 -29 -16 -29 7 0 25 21 26 51 0z m140 -12 c1 -19 2 -19 6 -5 5 18 5
18 25 0 15 -13 22 -15 25 -5 7 20 23 3 23 -24 0 -16 4 -23 11 -18 7 4 9 -2 7
-16 -2 -18 2 -24 22 -25 14 -2 30 2 36 6 16 13 44 0 44 -20 0 -11 -9 -17 -27
-19 -14 -1 -28 -3 -29 -5 -5 -5 10 -21 51 -56 22 -19 32 -32 23 -28 -10 3 -24
0 -33 -9 -9 -9 -23 -13 -32 -10 -13 5 -14 4 -3 -9 7 -9 10 -19 6 -23 -4 -4
-12 1 -17 11 -12 21 -39 23 -39 2 0 -8 -4 -15 -10 -15 -15 0 -12 16 5 34 19
19 19 43 1 53 -8 4 -14 12 -13 17 3 12 -30 32 -39 23 -4 -4 0 -15 10 -26 13
-14 14 -20 4 -23 -20 -8 -43 3 -28 12 7 4 9 13 5 20 -6 9 -9 9 -16 -1 -7 -11
-9 -11 -9 1 0 8 -9 21 -19 27 -12 7 -21 26 -23 45 -3 31 -5 33 -40 33 -21 0
-38 3 -38 8 0 4 0 12 0 17 0 6 8 10 18 10 9 0 23 9 30 20 18 29 62 27 63 -2z
m689 -24 c0 -14 -4 -23 -9 -20 -5 3 -7 15 -4 26 7 28 13 25 13 -6z m-1671 -49
c1 -23 -2 -26 -9 -15 -5 8 -9 31 -9 50 0 29 2 31 9 15 5 -11 9 -33 9 -50z
m-1589 40 c-7 -9 -15 -13 -17 -11 -7 7 7 26 19 26 6 0 6 -6 -2 -15z m1350 -35
c0 -5 4 -10 9 -10 11 0 78 -64 112 -107 25 -31 28 -32 34 -13 3 11 12 20 20
20 7 0 15 7 19 15 9 25 30 17 45 -17 13 -29 15 -30 23 -12 6 16 7 15 5 -6 -1
-18 -8 -25 -22 -25 -11 0 -20 7 -21 15 -2 31 -5 35 -14 20 -5 -9 -5 -19 2 -27
7 -9 7 -17 -2 -28 -6 -8 -9 -19 -6 -24 4 -5 -6 -9 -23 -9 -21 1 -32 8 -41 26
-8 19 -14 22 -19 13 -11 -17 -83 53 -75 73 3 9 -7 27 -25 45 -17 17 -31 35
-31 40 0 5 -6 12 -12 14 -8 3 -6 6 5 6 9 1 17 -3 17 -9z m-1410 -69 l-1 -36
-19 24 c-20 23 -26 52 -13 64 13 14 33 -17 33 -52z m900 38 c0 -24 -23 -21
-28 4 -2 10 3 17 12 17 10 0 16 -9 16 -21z m2554 -5 c15 -39 -4 -42 -24 -3 -8
15 -7 19 4 19 7 0 17 -7 20 -16z m-1656 -89 c-3 -3 -9 2 -12 12 -6 14 -5 15 5
6 7 -7 10 -15 7 -18z m-1551 -42 c-3 -10 -5 -2 -5 17 0 19 2 27 5 18 2 -10 2
-26 0 -35z m574 5 c12 -23 35 -55 52 -70 24 -23 27 -31 17 -43 -7 -8 -17 -15
-22 -15 -21 0 -78 -33 -78 -45 0 -8 -7 -21 -16 -29 -8 -9 -11 -16 -5 -16 6 0
8 -7 5 -15 -4 -8 -13 -15 -21 -15 -8 0 -28 -8 -46 -17 -18 -9 -35 -16 -39 -15
-5 1 -8 -8 -8 -19 0 -16 -5 -20 -20 -16 -12 3 -20 0 -20 -8 0 -18 27 -27 33
-11 3 8 36 19 74 26 79 15 135 40 157 72 9 12 16 16 16 9 0 -8 7 -11 20 -8 13
3 20 0 20 -9 0 -8 -4 -14 -10 -14 -5 0 -19 -9 -30 -20 -11 -11 -27 -20 -35
-20 -9 0 -27 -7 -40 -16 -14 -9 -25 -13 -25 -9 0 4 -7 2 -16 -6 -9 -7 -25 -14
-37 -16 -12 -1 -40 -5 -62 -7 -38 -5 -109 -27 -120 -37 -2 -3 -1 -20 4 -37 8
-27 7 -34 -10 -43 -12 -6 -18 -17 -15 -24 3 -8 1 -17 -5 -21 -6 -3 -13 3 -16
15 -3 11 -9 18 -14 15 -5 -3 -9 1 -9 9 0 8 -7 20 -15 27 -8 7 -15 22 -16 34 0
11 -9 46 -19 76 l-18 55 -9 -35 c-5 -19 -16 -35 -24 -35 -22 0 -27 -23 -22
-107 4 -76 -2 -93 -26 -65 -16 20 -27 82 -13 73 7 -4 12 -5 12 -3 0 16 -28 78
-52 113 -27 41 -37 71 -19 59 5 -3 16 2 24 10 9 8 20 15 25 15 5 0 17 9 26 19
10 11 25 17 36 14 12 -3 33 5 52 21 18 14 43 34 56 43 13 10 34 28 47 39 13
12 37 28 54 35 17 8 31 17 31 21 0 5 7 8 17 8 9 0 31 11 49 25 19 14 36 26 39
26 2 -1 16 11 29 24 14 14 27 25 30 25 3 0 15 -19 27 -42z m2689 21 c0 -5 -7
-9 -15 -9 -8 0 -15 7 -15 15 0 9 6 12 15 9 8 -4 15 -10 15 -15z m-1350 -25 c0
-8 -4 -12 -10 -9 -5 3 -10 10 -10 16 0 5 5 9 10 9 6 0 10 -7 10 -16z m1605 6
c3 -5 1 -10 -4 -10 -6 0 -11 5 -11 10 0 6 2 10 4 10 3 0 8 -4 11 -10z m-2415
-36 c0 -8 -4 -12 -10 -9 -5 3 -10 10 -10 16 0 5 5 9 10 9 6 0 10 -7 10 -16z
m-48 -44 c-6 -40 -18 -46 -26 -14 -7 28 -1 44 18 44 8 0 11 -10 8 -30z m1498
5 c0 -16 -6 -25 -15 -25 -8 0 -15 5 -15 10 0 6 5 10 11 10 6 0 9 7 5 15 -3 8
-1 15 4 15 6 0 10 -11 10 -25z m780 21 c0 -3 -4 -8 -10 -11 -5 -3 -10 -1 -10
4 0 6 5 11 10 11 6 0 10 -2 10 -4z m-733 -37 c-3 -13 2 -28 14 -40 10 -10 19
-23 19 -28 0 -5 15 -16 34 -25 39 -18 49 -37 36 -68 -5 -13 -9 -17 -9 -11 -1
17 -33 53 -46 53 -6 0 -21 13 -33 30 -12 16 -34 33 -47 36 -30 7 -31 17 -7 49
22 31 46 33 39 4z m-2677 1 c0 -5 -5 -10 -11 -10 -5 0 -7 5 -4 10 3 6 8 10 11
10 2 0 4 -4 4 -10z m2755 -10 c3 -5 0 -10 -9 -10 -8 0 -16 -5 -18 -11 -2 -7
-10 -4 -18 7 -14 16 -13 17 3 11 9 -3 17 -2 17 3 0 13 17 13 25 0z m-985 -20
c0 -5 -4 -10 -10 -10 -5 0 -10 5 -10 10 0 6 5 10 10 10 6 0 10 -4 10 -10z
m-522 -29 c16 -23 15 -23 -6 -17 -13 5 -22 3 -22 -3 0 -6 -4 -11 -9 -11 -5 0
-9 14 -9 30 1 37 23 37 46 1z m-525 -22 c5 -17 -3 -31 -30 -56 -43 -38 -53
-41 -53 -13 0 11 7 20 15 20 13 0 38 33 41 55 1 6 2 14 3 18 2 15 18 -2 24
-24z m2037 10 c0 -6 -4 -7 -10 -4 -5 3 -10 11 -10 16 0 6 5 7 10 4 6 -3 10
-11 10 -16z m21 -12 c-8 -8 -11 -7 -11 4 0 20 13 34 18 19 3 -7 -1 -17 -7 -23z
m-1661 3 c0 -5 -9 -10 -20 -10 -11 0 -20 5 -20 10 0 6 9 10 20 10 11 0 20 -4
20 -10z m-340 -42 c0 -5 -4 -8 -10 -8 -5 0 -10 10 -10 23 0 18 2 19 10 7 5 -8
10 -18 10 -22z m356 5 c-10 -10 -19 5 -10 18 6 11 8 11 12 0 2 -7 1 -15 -2
-18z m2788 12 c3 -8 1 -15 -4 -15 -6 0 -10 7 -10 15 0 8 2 15 4 15 2 0 6 -7
10 -15z m-2687 -17 c-3 -8 -6 -5 -6 6 -1 11 2 17 5 13 3 -3 4 -12 1 -19z
m-167 -10 c-1 -24 -29 -82 -30 -60 0 10 -5 10 -22 1 -18 -10 -20 -9 -15 5 4 9
2 16 -4 16 -6 0 2 14 18 30 33 36 53 38 53 8z m35 3 c-3 -6 -11 -11 -17 -11
-6 0 -6 6 2 15 14 17 26 13 15 -4z m-1062 2 c8 -7 -34 -32 -45 -26 -4 2 -5 10
-1 18 5 15 34 20 46 8z m-348 -23 c-3 -5 -12 -10 -18 -10 -7 0 -6 4 3 10 19
12 23 12 15 0z m3209 -69 c-4 -14 -9 -29 -11 -34 -9 -15 -23 5 -23 31 0 15 -4
34 -10 42 -15 25 13 33 32 9 12 -14 16 -30 12 -48z m-2937 7 c-3 -7 -5 -2 -5
12 0 14 2 19 5 13 2 -7 2 -19 0 -25z m1324 -9 c-9 -22 -10 -22 -10 -3 -1 11 2
24 6 27 12 12 14 0 4 -24z m-493 -22 c17 -46 15 -52 -12 -71 -24 -15 -86 -31
-86 -21 0 9 44 91 58 108 21 24 26 22 40 -16z m297 4 c9 -19 11 -32 5 -36 -6
-3 -13 2 -17 12 -4 10 -11 21 -16 24 -9 6 -2 29 8 29 3 0 11 -13 20 -29z
m1745 -1 c0 -5 -5 -10 -11 -10 -5 0 -7 5 -4 10 3 6 8 10 11 10 2 0 4 -4 4 -10z
m36 -77 c1 -21 0 -29 -3 -18 -3 11 -12 28 -20 37 -8 9 -12 22 -8 28 12 19 28
-5 31 -47z m-2326 43 c0 -3 -4 -8 -10 -11 -5 -3 -10 -1 -10 4 0 6 5 11 10 11
6 0 10 -2 10 -4z m700 -6 c0 -5 -5 -10 -11 -10 -5 0 -7 5 -4 10 3 6 8 10 11
10 2 0 4 -4 4 -10z m300 -16 c0 -8 -4 -12 -10 -9 -5 3 -10 10 -10 16 0 5 5 9
10 9 6 0 10 -7 10 -16z m-1408 -58 c-4 -43 26 -146 44 -153 15 -5 20 -33 6
-33 -5 0 -18 11 -30 25 -12 14 -26 25 -32 25 -5 0 -10 13 -10 29 0 16 -7 34
-15 41 -20 17 -19 39 6 79 23 39 35 34 31 -13z m462 34 c20 16 30 8 22 -18 -6
-18 -98 -72 -122 -72 -6 0 -9 -10 -7 -24 4 -21 0 -25 -35 -31 -37 -6 -82 6
-82 22 0 3 3 3 7 0 4 -4 14 9 23 29 10 22 20 32 24 25 4 -6 5 -15 1 -21 -3 -5
7 -3 22 5 15 8 33 15 38 15 6 0 26 17 45 38 19 20 38 33 42 28 4 -6 13 -4 22
4z m63 -57 c-8 -15 -23 -36 -34 -45 -23 -22 -105 -40 -117 -27 -6 6 -6 9 2 10
12 2 26 4 40 9 4 1 14 2 23 1 18 -2 69 53 69 74 0 15 23 27 28 14 2 -4 -3 -20
-11 -36z m393 37 c0 -5 -2 -10 -4 -10 -3 0 -8 5 -11 10 -3 6 -1 10 4 10 6 0
11 -4 11 -10z m1 -83 c-13 -13 -14 5 -3 43 l7 25 3 -29 c2 -16 -1 -33 -7 -39z
m-203 3 c-2 -5 -9 -6 -17 -1 -9 6 -11 16 -7 27 7 18 8 18 17 1 6 -10 9 -22 7
-27z m-57 -7 c-8 -15 -10 -15 -11 -2 0 17 10 32 18 25 2 -3 -1 -13 -7 -23z
m89 -31 c0 -15 -7 -40 -15 -56 -8 -15 -15 -36 -15 -45 -1 -9 -7 -27 -16 -41
l-15 -25 7 25 c22 80 27 99 31 137 5 46 23 49 23 5z m174 3 c-4 -8 -8 -15 -10
-15 -2 0 -4 7 -4 15 0 8 4 15 10 15 5 0 7 -7 4 -15z m-70 -22 c8 -8 13 -10 46
-12 13 -1 18 -6 13 -17 -5 -13 0 -15 29 -11 20 2 42 1 49 -4 8 -4 19 -3 26 3
10 8 13 6 13 -9 0 -10 6 -25 13 -32 10 -10 9 -12 -3 -9 -10 2 -16 -7 -18 -27
-5 -41 -20 -59 -38 -44 -10 8 -14 8 -14 1 0 -6 -7 -9 -15 -6 -8 4 -15 13 -15
21 0 14 -23 43 -34 43 -3 0 -12 -15 -21 -34 -13 -27 -20 -32 -40 -28 -20 3
-24 9 -20 28 3 13 7 35 10 49 3 14 1 25 -5 25 -5 0 -10 16 -10 35 0 34 16 46
34 28z m-1054 -81 c-11 -20 -20 -44 -20 -54 0 -10 -10 -23 -22 -29 -13 -6 -33
-21 -45 -32 -22 -20 -23 -20 -23 -1 1 22 33 64 49 64 6 0 22 23 36 50 14 28
30 48 35 45 5 -3 1 -22 -10 -43z m2994 22 c3 -8 2 -12 -4 -9 -6 3 -10 10 -10
16 0 14 7 11 14 -7z m-2114 -124 c-6 -12 -14 -19 -17 -17 -2 3 1 15 7 27 6 12
14 19 17 17 2 -3 -1 -15 -7 -27z m-590 -64 c-16 -43 -19 -27 -6 34 9 46 12 50
14 24 2 -16 -2 -43 -8 -58z m-140 54 c0 -5 -4 -10 -10 -10 -5 0 -10 5 -10 10
0 6 5 10 10 10 6 0 10 -4 10 -10z m1017 -22 c-3 -7 -5 -2 -5 12 0 14 2 19 5
13 2 -7 2 -19 0 -25z m-163 -13 c3 -8 17 -15 30 -15 22 0 24 -3 17 -22 -5 -15
-17 -23 -30 -22 -15 0 -21 -5 -21 -22 0 -18 -8 -26 -40 -35 -22 -7 -40 -15
-40 -19 0 -3 -9 -16 -21 -29 -20 -21 -22 -21 -46 -6 -31 21 -47 9 -60 -44 -9
-36 -33 -55 -33 -26 0 15 -1 15 -16 1 -21 -22 -31 -20 -30 7 1 19 -4 22 -42
23 -24 1 -48 6 -55 13 -13 13 -13 13 39 15 30 2 53 11 82 35 23 18 52 33 65
35 13 1 35 12 48 24 13 11 44 39 69 61 47 43 74 51 84 26z m306 -11 c0 -2 -9
-8 -19 -13 -16 -9 -18 -8 -14 8 3 12 11 17 19 14 8 -3 14 -7 14 -9z m-153 -16
c-3 -8 -6 -5 -6 6 -1 11 2 17 5 13 3 -3 4 -12 1 -19z m-1144 -25 c7 -40 4 -49
-12 -38 -13 7 -15 75 -2 75 4 0 11 -17 14 -37z m187 7 c0 -5 -4 -10 -10 -10
-5 0 -10 5 -10 10 0 6 5 10 10 10 6 0 10 -4 10 -10z m67 -70 c-2 -33 -1 -62 3
-65 5 -3 6 -14 3 -26 -4 -13 -9 -17 -16 -10 -9 9 -1 161 10 161 3 0 3 -27 0
-60z m760 -17 c-4 -3 0 -11 9 -18 14 -10 13 -13 -11 -29 -15 -10 -28 -16 -29
-14 -5 5 24 68 31 68 3 0 3 -3 0 -7z m83 -3 c0 -5 -5 -10 -11 -10 -5 0 -7 5
-4 10 3 6 8 10 11 10 2 0 4 -4 4 -10z m80 -10 c0 -5 -4 -10 -10 -10 -5 0 -10
5 -10 10 0 6 5 10 10 10 6 0 10 -4 10 -10z m-108 -57 c-10 -16 -18 -34 -16
-41 1 -7 0 -8 -3 -2 -9 18 -21 11 -32 -20 -5 -16 -15 -30 -21 -30 -6 0 -8 4
-5 10 3 6 -1 7 -9 4 -9 -3 -16 -2 -16 2 1 11 68 84 78 84 4 0 14 10 21 23 9
14 16 17 18 10 3 -7 -4 -25 -15 -40z m-505 21 c13 -4 21 -10 18 -14 -6 -10
-97 0 -109 11 -11 10 57 12 91 3z m-479 -104 c0 -27 -4 -50 -9 -50 -12 0 -15
55 -4 88 9 25 14 11 13 -38z m766 12 c-1 -42 -11 -54 -34 -42 -22 12 -16 42 6
33 9 -3 14 2 14 16 0 12 3 21 8 21 4 0 7 -13 6 -28z m-690 2 c5 -14 4 -15 -9
-4 -17 14 -19 20 -6 20 5 0 12 -7 15 -16z m506 -26 c0 -5 -6 -8 -14 -8 -9 0
-12 7 -9 21 4 16 8 17 14 7 5 -7 9 -16 9 -20z m270 22 c0 -5 -5 -10 -11 -10
-5 0 -7 5 -4 10 3 6 8 10 11 10 2 0 4 -4 4 -10z m-320 -15 c0 -8 -4 -15 -9
-15 -5 0 -11 7 -15 15 -3 9 0 15 9 15 8 0 15 -7 15 -15z m-308 -37 c-19 -36
-37 -58 -47 -58 -4 0 -5 7 -1 15 4 12 -2 14 -37 9 -32 -4 -39 -2 -30 7 6 6 32
14 57 16 33 4 47 11 51 24 4 11 10 19 15 19 5 0 1 -14 -8 -32z m588 -18 c0 -5
-5 -10 -11 -10 -5 0 -7 5 -4 10 3 6 8 10 11 10 2 0 4 -4 4 -10z m154 -5 c-4
-8 -13 -15 -21 -15 -13 0 -13 3 -3 15 7 8 16 15 21 15 5 0 6 -7 3 -15z m-894
-55 c0 -5 -4 -10 -10 -10 -5 0 -10 5 -10 10 0 6 5 10 10 10 6 0 10 -4 10 -10z
m131 -23 c-5 -7 -8 -23 -4 -35 5 -19 2 -21 -24 -18 -17 1 -35 6 -41 10 -6 3
-15 -2 -21 -11 -9 -16 -10 -16 -11 -2 0 9 7 19 15 23 8 3 15 15 15 26 0 20 1
20 16 6 14 -15 18 -14 37 10 12 16 23 22 25 15 2 -6 -1 -17 -7 -24z m489 23
c0 -5 -2 -10 -4 -10 -3 0 -8 5 -11 10 -3 6 -1 10 4 10 6 0 11 -4 11 -10z
m3610 -24 c0 -19 -27 -28 -34 -11 -3 9 0 12 10 8 7 -3 14 0 14 6 0 6 2 11 5
11 3 0 5 -6 5 -14z m184 -31 c5 -20 4 -27 -3 -20 -5 6 -13 24 -17 40 -4 20 -3
27 3 20 6 -5 14 -23 17 -40z m53 23 c-3 -8 -6 -5 -6 6 -1 11 2 17 5 13 3 -3 4
-12 1 -19z m-210 -20 c-3 -8 -6 -5 -6 6 -1 11 2 17 5 13 3 -3 4 -12 1 -19z
m-167 -29 c0 -9 7 -30 16 -48 12 -25 20 -30 36 -25 20 6 58 -20 58 -40 0 -6
-6 -4 -13 5 -15 19 -47 32 -47 19 0 -5 -7 -7 -15 -4 -19 8 -19 -7 0 -32 19
-25 19 -35 0 -28 -14 6 -32 66 -26 93 1 8 -3 20 -11 25 -7 6 -14 26 -15 45 -1
24 1 30 8 20 5 -8 9 -21 9 -30z m35 31 c3 -5 1 -10 -4 -10 -6 0 -11 5 -11 10
0 6 2 10 4 10 3 0 8 -4 11 -10z m-91 -45 c11 -8 16 -18 12 -22 -4 -4 -12 0
-17 10 -6 9 -14 15 -20 12 -5 -4 -9 -1 -9 4 0 15 11 13 34 -4z m-124 -28 c0
-5 -7 -7 -15 -3 -11 4 -15 -2 -15 -27 0 -18 -5 -39 -10 -47 -6 -10 -8 -1 -5
30 2 25 -1 50 -8 59 -9 12 -9 13 1 7 6 -4 12 -2 12 3 0 7 7 7 20 -1 11 -7 20
-17 20 -21z m144 -36 c8 -13 11 -12 16 9 5 21 8 17 14 -24 4 -26 16 -63 27
-82 18 -34 18 -34 -1 -34 -14 0 -20 7 -20 24 0 14 -10 30 -25 40 -31 21 -35
-1 -5 -27 25 -21 25 -42 1 -66 -21 -21 -31 -18 -31 10 0 9 -11 24 -25 33 -23
15 -25 15 -25 -1 0 -10 9 -24 20 -31 11 -7 20 -19 20 -28 0 -9 -5 -12 -11 -8
-6 3 -15 1 -19 -7 -6 -9 -16 -4 -40 21 -17 18 -36 42 -42 53 -13 25 -17 77 -5
77 4 0 6 9 2 19 -3 11 0 23 6 27 9 5 10 -3 6 -32 -7 -47 4 -106 21 -112 6 -2
12 3 12 12 0 9 -5 16 -11 16 -9 0 -4 37 7 49 6 7 94 -54 94 -66 0 -7 5 -13 10
-13 6 0 10 6 10 12 0 16 -70 79 -80 73 -5 -3 -11 2 -14 11 -3 8 -10 13 -15 10
-5 -3 -11 1 -15 9 -4 10 1 15 15 15 11 0 22 -7 25 -15 4 -8 12 -15 20 -15 8 0
14 -4 14 -10 0 -5 5 -10 10 -10 22 0 8 30 -24 49 -45 28 -64 51 -42 51 9 0 16
-7 16 -15 0 -8 6 -15 13 -15 6 0 30 -16 52 -35 22 -20 41 -31 43 -25 4 12 -66
85 -74 77 -8 -8 -42 26 -37 36 5 9 73 -40 87 -62z m129 46 c4 3 7 -1 7 -9 0
-9 7 -18 15 -22 8 -3 15 -10 15 -16 0 -6 -17 2 -37 19 -34 28 -38 29 -45 14
-3 -10 -7 -15 -7 -11 -1 3 -4 14 -8 24 -4 12 -3 15 5 10 7 -4 12 -2 12 5 0 8
6 6 18 -4 10 -10 22 -14 25 -10z m-350 -10 c10 -4 15 -12 12 -17 -5 -8 -11 -7
-21 1 -9 7 -14 8 -14 1 0 -20 12 -42 24 -42 12 0 15 -54 4 -66 -8 -7 -12 8 -9
37 1 9 -5 21 -13 28 -13 11 -14 7 -9 -26 6 -36 6 -37 -11 -20 -23 23 -29 22
-21 -4 7 -20 6 -20 -19 -4 -26 17 -34 35 -16 35 6 0 10 -5 10 -11 0 -5 4 -8
10 -4 14 9 0 36 -23 44 -14 5 -17 10 -9 15 7 4 23 -4 37 -20 18 -20 25 -23 25
-11 0 9 -10 23 -22 31 -16 11 -18 16 -7 16 8 0 21 -6 28 -12 10 -11 12 -9 11
7 -3 28 -1 37 8 32 4 -2 15 -7 25 -10z m472 3 c3 -5 1 -10 -4 -10 -6 0 -11 5
-11 10 0 6 2 10 4 10 3 0 8 -4 11 -10z m-601 -26 c3 -8 2 -12 -4 -9 -6 3 -10
10 -10 16 0 14 7 11 14 -7z m571 -4 c3 -5 1 -10 -4 -10 -6 0 -11 5 -11 10 0 6
2 10 4 10 3 0 8 -4 11 -10z m-675 -25 c0 -8 -4 -17 -10 -20 -6 -4 -10 5 -10
20 0 15 4 24 10 20 6 -3 10 -12 10 -20z m724 1 c-6 -15 -24 -23 -24 -11 0 8
24 34 28 30 1 -1 0 -10 -4 -19z m44 -1 c-3 -3 -9 2 -12 12 -6 14 -5 15 5 6 7
-7 10 -15 7 -18z m-818 -1 c0 -8 -4 -12 -10 -9 -5 3 -10 10 -10 16 0 5 5 9 10
9 6 0 10 -7 10 -16z m97 -16 c-3 -7 -5 -2 -5 12 0 14 2 19 5 13 2 -7 2 -19 0
-25z m605 -20 c-9 -9 -12 -4 -11 23 0 32 1 33 11 11 8 -17 8 -26 0 -34z m-620
-36 c-4 -18 -7 -20 -18 -11 -11 9 -14 8 -14 -4 0 -9 3 -18 8 -21 11 -7 45 21
38 32 -9 15 4 40 22 44 25 5 40 -32 35 -85 -3 -32 0 -47 7 -47 8 0 10 9 6 24
-4 17 -1 26 11 30 10 4 14 4 10 0 -9 -9 13 -35 24 -28 5 3 9 1 9 -5 0 -5 3
-18 7 -28 7 -17 6 -17 -11 0 -9 9 -21 17 -26 17 -14 0 -41 -57 -34 -73 3 -8
-1 -17 -8 -20 -11 -4 -13 5 -11 39 4 53 -13 59 -23 8 -8 -42 -29 -54 -50 -28
-10 13 -17 15 -20 7 -7 -15 -34 -5 -34 13 0 8 -4 14 -10 14 -12 0 -13 -27 -1
-34 5 -3 11 -15 14 -26 4 -17 2 -20 -13 -15 -10 3 -20 0 -23 -8 -3 -7 -17 -12
-33 -11 -16 1 -35 3 -42 3 -8 1 -11 8 -7 20 3 11 -1 24 -11 32 -16 13 -17 11
-12 -13 6 -32 -2 -36 -19 -9 -13 20 -6 64 8 55 5 -3 9 4 9 15 0 30 -16 34 -33
8 -11 -17 -13 -34 -7 -66 6 -31 4 -46 -7 -57 -19 -19 -25 -18 -16 4 14 30 8
65 -12 76 -11 6 -25 18 -32 26 -12 13 -13 10 -11 -15 2 -21 8 -29 19 -27 9 1
19 -4 23 -13 3 -8 1 -15 -4 -15 -5 0 -17 -15 -26 -32 -11 -20 -19 -28 -22 -20
-2 8 1 19 7 25 16 16 13 47 -5 54 -12 4 -14 14 -10 35 3 16 2 37 -3 46 -23 42
-34 112 -18 112 4 0 7 -13 7 -28 0 -16 3 -32 8 -36 4 -4 7 -17 7 -29 0 -13 7
-23 19 -25 15 -3 17 0 11 14 -18 45 -23 74 -14 79 5 4 9 -3 9 -14 0 -26 10
-51 21 -51 5 0 9 6 9 14 0 9 7 12 20 9 11 -3 20 -12 20 -19 0 -8 5 -14 10 -14
14 0 12 27 -2 37 -30 19 -42 73 -17 73 6 0 9 -6 8 -12 -3 -27 2 -38 16 -38 19
0 19 11 0 36 -17 23 -19 34 -5 34 6 0 10 -6 10 -14 0 -8 5 -18 10 -21 12 -7
40 18 40 35 0 6 4 9 9 6 10 -7 -9 -56 -21 -56 -15 0 -8 -29 11 -47 28 -27 57
-144 31 -128 -5 3 -10 0 -10 -8 0 -24 13 -28 32 -10 20 18 24 43 7 43 -6 0 -8
7 -5 15 3 9 1 24 -6 34 -8 14 -7 22 8 39 19 23 29 88 15 97 -5 3 -12 -11 -15
-30 -4 -19 -11 -35 -16 -35 -5 0 -7 -8 -3 -17 5 -17 5 -17 -13 0 -12 12 -15
20 -8 25 9 6 22 31 25 50 1 11 20 32 29 32 4 0 10 -8 13 -19 3 -14 11 -17 31
-14 15 3 26 1 26 -6 0 -24 19 -9 26 22 l8 32 6 -30 c3 -16 4 -40 2 -53z m75
56 c-3 -8 -6 -5 -6 6 -1 11 2 17 5 13 3 -3 4 -12 1 -19z m517 -14 c3 -8 2 -12
-4 -9 -6 3 -10 10 -10 16 0 14 7 11 14 -7z m-24 -20 c0 -7 -10 -9 -25 -6 -32
6 -32 20 0 18 14 0 25 -6 25 -12z m-1060 -20 c0 -16 -16 -19 -25 -4 -8 13 4
32 16 25 5 -4 9 -13 9 -21z m67 -11 c-3 -10 -5 -4 -5 12 0 17 2 24 5 18 2 -7
2 -21 0 -30z m683 -33 c12 -32 -1 -92 -20 -98 -12 -3 -12 -2 -3 8 6 7 9 18 7
25 -3 7 -1 16 4 19 6 3 4 21 -4 46 -7 21 -10 47 -6 57 6 15 7 14 10 -7 2 -14
7 -36 12 -50z m-887 47 c23 -12 24 -15 11 -28 -13 -14 -12 -17 6 -34 18 -16
20 -16 20 -2 0 10 5 17 10 17 6 0 10 7 10 15 0 8 4 15 10 15 10 0 3 -27 -13
-47 -6 -9 -5 -18 3 -28 18 -21 33 -19 27 5 -6 24 24 36 53 20 17 -9 20 -8 20
12 0 13 5 30 11 38 8 11 9 4 5 -28 -4 -24 -13 -51 -21 -59 -14 -13 -18 -12
-35 9 -18 21 -19 21 -20 4 0 -11 7 -28 17 -38 9 -10 13 -21 9 -26 -4 -4 -14 2
-22 12 -10 15 -17 17 -25 9 -9 -9 -5 -20 14 -44 23 -29 24 -34 10 -44 -9 -7
-13 -17 -9 -23 11 -18 36 -14 36 4 0 15 2 15 25 0 14 -9 31 -13 38 -9 18 11
36 12 42 3 5 -8 -14 -12 -121 -24 l-41 -5 -7 45 c-10 78 -56 141 -56 77 0 -37
-13 -20 -14 19 -1 40 -26 51 -26 12 0 -26 -1 -27 -14 -9 -16 22 -10 56 9 48 9
-3 16 7 21 33 5 30 3 40 -11 51 -24 17 -5 17 28 0z m-282 -30 c-8 -8 -11 -7
-11 4 0 20 13 34 18 19 3 -7 -1 -17 -7 -23z m114 23 c3 -5 1 -10 -4 -10 -6 0
-11 5 -11 10 0 6 2 10 4 10 3 0 8 -4 11 -10z m925 -10 c11 -11 20 -24 20 -29
0 -5 7 -11 15 -15 17 -6 21 19 5 29 -6 4 -8 11 -4 16 8 14 24 1 24 -20 0 -10
7 -24 15 -31 12 -10 15 -10 15 3 0 9 -4 19 -10 22 -5 3 -10 11 -10 18 0 7 7 5
16 -5 12 -12 15 -26 10 -52 -8 -40 -21 -47 -29 -16 -3 11 -10 20 -16 20 -16 0
-13 -26 5 -45 9 -9 13 -19 10 -23 -9 -9 -25 16 -33 51 -3 16 -21 40 -39 55
-19 15 -34 30 -34 35 0 13 20 7 40 -13z m-990 0 c0 -5 -4 -10 -10 -10 -5 0
-10 5 -10 10 0 6 5 10 10 10 6 0 10 -4 10 -10z m40 -20 c7 -16 16 -30 20 -30
4 0 10 -9 13 -20 3 -11 10 -20 16 -20 15 0 14 33 -1 48 -9 9 -8 12 5 12 9 0
17 -6 18 -12 1 -7 2 -22 3 -33 1 -11 3 -35 4 -52 1 -22 7 -33 17 -33 8 0 15
-4 15 -10 0 -5 -9 -10 -20 -10 -11 0 -20 -5 -20 -12 0 -6 -3 -8 -7 -4 -5 4 -8
26 -8 48 0 51 -21 61 -30 16 -9 -42 -31 -73 -40 -59 -3 6 1 18 9 27 18 17 21
84 6 114 -5 11 -15 29 -20 40 -6 11 -6 20 -1 20 5 0 14 -13 21 -30z m1360 8
c0 -13 -23 -5 -28 10 -2 7 2 10 12 6 9 -3 16 -11 16 -16z m-1611 -15 c0 -25
-1 -26 -9 -8 -12 27 -12 35 0 35 6 0 10 -12 9 -27z m397 11 c-3 -9 -6 -20 -6
-25 0 -4 -7 -6 -15 -3 -12 5 -14 -2 -11 -37 2 -24 11 -48 20 -54 9 -7 16 -16
16 -20 0 -4 -6 -2 -13 4 -8 6 -17 8 -20 4 -4 -3 -7 1 -7 10 0 10 -3 17 -7 17
-7 0 -8 18 -4 81 0 11 6 17 11 14 6 -3 10 1 10 9 0 9 7 16 16 16 11 0 14 -5
10 -16z m-433 -6 c-4 -7 -8 -17 -9 -23 0 -5 -2 -16 -2 -23 -1 -7 -6 -11 -11
-8 -14 9 -20 -16 -9 -37 7 -14 12 -16 23 -7 15 12 35 6 35 -11 0 -6 -5 -7 -10
-4 -6 3 -13 0 -16 -9 -7 -19 -31 -10 -39 15 -7 22 -25 26 -25 5 0 -8 -7 -16
-15 -20 -16 -6 -18 -2 -9 32 4 12 13 22 20 22 8 0 14 7 14 15 0 8 4 15 9 15 5
0 12 11 15 25 4 14 13 25 22 25 10 0 12 -5 7 -12z m-153 -7 c0 -5 -5 -11 -12
-13 -6 -2 -12 -26 -12 -55 -1 -28 -5 -55 -9 -60 -5 -4 -7 25 -6 65 3 61 6 72
21 72 10 0 18 -4 18 -9z m68 -11 c-13 -20 -28 -27 -28 -12 0 10 22 32 32 32 5
0 3 -9 -4 -20z m187 -54 c-9 -48 -25 -46 -25 3 0 22 -3 48 -6 58 -6 16 -4 15
15 -3 19 -17 21 -27 16 -58z m615 64 c12 -7 10 -9 -8 -7 -12 0 -22 5 -22 9 0
11 12 10 30 -2z m-510 -65 c-7 -13 -17 -22 -22 -19 -6 4 -5 11 1 17 6 6 11 25
12 42 0 29 1 29 11 7 8 -17 8 -28 -2 -47z m2965 55 c-3 -5 -10 -10 -16 -10 -5
0 -9 5 -9 10 0 6 7 10 16 10 8 0 12 -4 9 -10z m-2908 -61 c-3 -27 -11 -57 -17
-67 -9 -13 -10 -8 -4 23 4 22 7 55 6 73 -2 22 2 31 9 26 7 -4 9 -24 6 -55z
m426 39 c5 -18 -3 -48 -14 -48 -5 0 -9 -7 -9 -15 0 -8 -7 -15 -15 -15 -8 0
-15 5 -15 10 0 6 3 10 8 10 10 0 32 51 26 61 -3 5 -1 9 5 9 5 0 11 -6 14 -12z
m-893 -36 c0 -2 -4 -1 -9 3 -17 10 -24 -16 -11 -41 11 -19 11 -26 0 -39 -19
-23 -28 -18 -22 11 2 14 0 29 -5 33 -6 4 -6 18 -1 38 8 31 9 32 28 15 11 -9
20 -18 20 -20z m245 28 c3 -5 1 -10 -4 -10 -6 0 -11 5 -11 10 0 6 2 10 4 10 3
0 8 -4 11 -10z m689 -35 c-5 -36 -3 -46 10 -51 9 -3 16 -12 16 -20 0 -21 -17
-17 -23 6 -3 11 -12 20 -21 20 -14 0 -15 4 -6 20 6 11 10 26 9 33 -3 24 1 37
12 37 7 0 8 -16 3 -45z m2286 3 c0 -4 -9 0 -19 9 -11 9 -17 21 -14 26 6 10 33
-19 33 -35z m-1610 12 c0 -5 -4 -10 -10 -10 -5 0 -10 5 -10 10 0 6 5 10 10 10
6 0 10 -4 10 -10z m-1534 -16 c-3 -9 -6 -23 -6 -32 0 -10 -3 -13 -10 -6 -11
11 -2 54 12 54 6 0 7 -7 4 -16z m-148 -32 c2 -17 7 -32 11 -32 7 0 8 -28 2
-50 0 -3 -11 11 -23 30 -28 45 -33 92 -10 88 11 -2 18 -15 20 -36z m2942 28
c0 -5 -10 -10 -22 -9 -22 0 -22 1 -3 9 11 5 21 9 23 9 1 1 2 -3 2 -9z m-2520
-16 c0 -8 -5 -12 -10 -9 -6 4 -8 11 -5 16 9 14 15 11 15 -7z m2230 -4 c0 -5
-2 -10 -4 -10 -3 0 -8 5 -11 10 -3 6 -1 10 4 10 6 0 11 -4 11 -10z m-393 -16
c-3 -3 -12 -4 -19 -1 -8 3 -5 6 6 6 11 1 17 -2 13 -5z m-1347 -14 c0 -5 -5
-10 -11 -10 -5 0 -7 5 -4 10 3 6 8 10 11 10 2 0 4 -4 4 -10z m65 -10 c21 -23
4 -27 -19 -4 -18 17 -20 24 -8 24 5 0 17 -9 27 -20z m385 -11 c0 -6 -4 -7 -10
-4 -5 3 -10 11 -10 16 0 6 5 7 10 4 6 -3 10 -11 10 -16z m1847 15 c-3 -3 -12
-4 -19 -1 -8 3 -5 6 6 6 11 1 17 -2 13 -5z m-1667 -8 c0 -3 -4 -8 -10 -11 -5
-3 -10 -1 -10 4 0 6 5 11 10 11 6 0 10 -2 10 -4z m966 -33 c-4 -4 -11 -1 -16
7 -16 25 -11 35 7 17 9 -9 13 -20 9 -24z m-426 23 c0 -11 -19 -15 -25 -6 -3 5
1 10 9 10 9 0 16 -2 16 -4z m480 0 c0 -2 -7 -6 -15 -10 -8 -3 -15 -1 -15 4 0
6 7 10 15 10 8 0 15 -2 15 -4z m-2605 -16 c-3 -5 -10 -10 -16 -10 -5 0 -9 5
-9 10 0 6 7 10 16 10 8 0 12 -4 9 -10z m2465 -9 c0 -12 -29 -23 -42 -15 -6 4
-5 10 3 15 18 11 39 11 39 0z m-1130 -15 c0 -3 -4 -8 -10 -11 -5 -3 -10 -1
-10 4 0 6 5 11 10 11 6 0 10 -2 10 -4z m575 -6 c3 -5 1 -10 -4 -10 -6 0 -11 5
-11 10 0 6 2 10 4 10 3 0 8 -4 11 -10z m453 -15 c-3 -3 -9 2 -12 12 -6 14 -5
15 5 6 7 -7 10 -15 7 -18z m-618 -26 c0 -10 -4 -19 -10 -19 -5 0 -10 12 -10
26 0 14 4 23 10 19 6 -3 10 -15 10 -26z m42 19 c-9 -9 -15 -9 -24 0 -9 9 -7
12 12 12 19 0 21 -3 12 -12z m499 -7 c-14 -10 -31 -17 -38 -14 -22 9 5 33 36
33 l26 0 -24 -19z m-161 -21 c0 -11 -49 -22 -61 -14 -15 9 21 32 43 26 10 -2
18 -8 18 -12z m-423 -12 c-3 -8 -6 -5 -6 6 -1 11 2 17 5 13 3 -3 4 -12 1 -19z
m323 -15 c0 -9 -1 -14 -3 -12 -1 2 -11 15 -22 28 l-20 24 23 -12 c12 -6 22
-19 22 -28z m-80 2 c0 -17 -45 -11 -48 7 -3 13 2 15 22 10 14 -4 26 -11 26
-17z m-120 5 c0 -5 -2 -10 -4 -10 -3 0 -8 5 -11 10 -3 6 -1 10 4 10 6 0 11 -4
11 -10z m-405 -11 c4 -5 -8 -9 -25 -9 -17 0 -29 4 -26 8 7 11 45 12 51 1z
m117 -14 c15 -14 39 -25 55 -25 36 0 20 -14 -41 -34 l-48 -17 -24 28 c-30 35
-32 55 -3 26 17 -17 26 -19 39 -11 16 10 15 13 -9 34 -18 16 -21 23 -11 24 8
0 27 -11 42 -25z m209 5 c28 4 49 0 49 -10 0 -6 -6 -10 -12 -8 -7 1 -22 -3
-33 -9 -36 -19 -85 -26 -85 -11 0 10 -2 10 -8 0 -6 -9 -12 -6 -20 13 -11 23
-10 25 13 23 14 -1 25 -6 25 -10 0 -4 11 -7 24 -6 18 2 22 7 19 23 -4 14 -2
16 5 7 5 -8 15 -13 23 -12z m137 -1 c-2 -6 -8 -10 -13 -10 -5 0 -11 4 -13 10
-2 6 4 11 13 11 9 0 15 -5 13 -11z m-803 -129 c3 -5 -1 -10 -9 -10 -9 0 -16 5
-16 10 0 6 4 10 9 10 6 0 13 -4 16 -10z m-185 -21 c0 -6 -4 -7 -10 -4 -5 3
-10 11 -10 16 0 6 5 7 10 4 6 -3 10 -11 10 -16z m87 -25 c-3 -3 -12 -4 -19 -1
-8 3 -5 6 6 6 11 1 17 -2 13 -5z m-184 -25 c-8 -8 -16 -8 -30 0 -16 9 -14 10
12 11 21 0 26 -3 18 -11z m-315 -37 c2 -7 -1 -12 -7 -12 -6 0 -11 -15 -11 -32
l-1 -33 -14 26 c-17 31 -10 68 13 65 9 -2 18 -8 20 -14z m-428 -18 c0 -8 -4
-12 -10 -9 -5 3 -10 13 -10 21 0 8 5 12 10 9 6 -3 10 -13 10 -21z m274 -8
c-10 -8 -21 -12 -23 -10 -3 2 4 11 15 18 10 8 21 12 23 10 3 -2 -4 -11 -15
-18z m-464 -31 c0 -5 -5 -3 -10 5 -5 8 -10 20 -10 25 0 6 5 3 10 -5 5 -8 10
-19 10 -25z m377 13 c-3 -8 -6 -5 -6 6 -1 11 2 17 5 13 3 -3 4 -12 1 -19z
m-490 -25 c44 -8 30 -25 -14 -18 -38 6 -100 32 -109 46 -2 4 17 1 43 -7 26 -8
63 -17 80 -21z m227 2 c-4 -8 -17 -15 -30 -15 -42 0 -25 27 18 29 12 1 15 -4
12 -14z m-121 -67 c-6 -7 -14 -28 -18 -45 -7 -36 -36 -47 -32 -12 2 20 48 81
56 73 2 -2 -1 -9 -6 -16z m57 -58 c0 -16 -41 -33 -53 -21 -7 7 -3 13 14 20 32
13 39 13 39 1z m-140 -50 c8 -5 12 -12 9 -15 -8 -8 -39 5 -39 16 0 11 11 11
30 -1z"/>
<path d="M3765 3430 c-3 -5 -1 -10 4 -10 6 0 11 5 11 10 0 6 -2 10 -4 10 -3 0
-8 -4 -11 -10z"/>
<path d="M3940 2990 c0 -5 7 -10 15 -10 8 0 15 5 15 10 0 6 -7 10 -15 10 -8 0
-15 -4 -15 -10z"/>
<path d="M5055 2990 c3 -5 8 -10 11 -10 2 0 4 5 4 10 0 6 -5 10 -11 10 -5 0
-7 -4 -4 -10z"/>
<path d="M5076 2964 c-11 -28 -6 -34 25 -34 23 0 30 4 27 16 -4 24 -45 37 -52
18z"/>
<path d="M5251 2818 c0 -17 87 -80 94 -69 5 9 -37 41 -53 41 -6 0 -12 9 -15
20 -6 22 -27 28 -26 8z"/>
<path d="M5335 2630 c4 -6 11 -8 16 -5 14 9 11 15 -7 15 -8 0 -12 -5 -9 -10z"/>
<path d="M3093 2793 c9 -2 25 -2 35 0 9 3 1 5 -18 5 -19 0 -27 -2 -17 -5z"/>
<path d="M3201 2754 c0 -11 3 -14 6 -6 3 7 2 16 -1 19 -3 4 -6 -2 -5 -13z"/>
<path d="M3195 2720 c-3 -5 1 -10 9 -10 9 0 16 5 16 10 0 6 -4 10 -9 10 -6 0
-13 -4 -16 -10z"/>
<path d="M2763 2720 c-13 -5 -23 -12 -23 -15 0 -10 44 2 48 13 4 14 4 14 -25
2z"/>
<path d="M3145 2411 c14 -14 100 -30 115 -21 18 11 2 17 -65 25 -43 5 -57 4
-50 -4z"/>
<path d="M3371 2394 c0 -11 3 -14 6 -6 3 7 2 16 -1 19 -3 4 -6 -2 -5 -13z"/>
<path d="M3245 2150 c-3 -5 -1 -10 4 -10 6 0 11 5 11 10 0 6 -2 10 -4 10 -3 0
-8 -4 -11 -10z"/>
<path d="M4750 2480 c0 -5 5 -10 11 -10 5 0 7 5 4 10 -3 6 -8 10 -11 10 -2 0
-4 -4 -4 -10z"/>
<path d="M4710 2425 c-8 -9 -8 -15 -2 -15 12 0 26 19 19 26 -2 2 -10 -2 -17
-11z"/>
<path d="M4840 2331 c0 -5 5 -13 10 -16 6 -3 10 -2 10 4 0 5 -4 13 -10 16 -5
3 -10 2 -10 -4z"/>
<path d="M2867 2201 c-39 -40 -34 -55 10 -31 21 11 46 20 56 20 19 0 20 21 2
22 -6 0 -17 4 -25 8 -10 6 -24 -1 -43 -19z"/>
<path d="M2665 2159 c-74 -77 -115 -147 -104 -177 5 -13 6 -28 3 -34 -7 -12
16 -29 28 -22 4 3 8 16 8 28 0 13 11 40 25 60 14 20 25 46 25 57 0 11 7 22 15
25 25 10 76 114 56 114 -4 0 -29 -23 -56 -51z"/>
<path d="M2784 2102 c-6 -4 -15 -18 -19 -32 l-7 -25 22 21 c22 22 25 50 4 36z"/>
<path d="M2422 2006 c-14 -30 -9 -47 9 -29 6 6 9 21 7 34 -3 23 -3 23 -16 -5z"/>
<path d="M2587 1893 c-13 -12 -7 -51 8 -56 19 -8 28 9 21 39 -6 24 -17 30 -29
17z"/>
<path d="M2432 1810 c0 -14 2 -19 5 -12 2 6 2 18 0 25 -3 6 -5 1 -5 -13z"/>
<path d="M3290 2054 c0 -8 5 -12 10 -9 6 3 10 10 10 16 0 5 -4 9 -10 9 -5 0
-10 -7 -10 -16z"/>
<path d="M2691 1768 c-14 -23 -14 -23 8 -4 22 20 25 26 13 26 -4 0 -13 -10
-21 -22z"/>
<path d="M6310 851 c0 -11 5 -23 10 -26 6 -3 10 3 10 14 0 11 -4 23 -10 26 -5
3 -10 -3 -10 -14z"/>
<path d="M6315 799 c-4 -6 0 -18 9 -27 15 -15 16 -15 16 5 0 25 -15 38 -25 22z"/>
<path d="M5930 861 c0 -6 -7 -8 -15 -5 -12 5 -15 -2 -15 -30 0 -41 17 -48 26
-11 3 14 10 22 15 19 5 -3 9 2 9 10 0 8 -4 18 -10 21 -5 3 -10 2 -10 -4z"/>
<path d="M6030 858 c0 -9 5 -20 10 -23 13 -8 13 5 0 25 -8 13 -10 13 -10 -2z"/>
<path d="M5777 811 c3 -12 9 -21 14 -21 14 0 11 16 -5 29 -12 10 -13 8 -9 -8z"/>
<path d="M6020 811 c0 -12 5 -21 10 -21 6 0 10 6 10 14 0 8 -4 18 -10 21 -5 3
-10 -3 -10 -14z"/>
<path d="M5945 810 c-7 -12 2 -30 16 -30 12 0 12 27 0 35 -5 3 -12 1 -16 -5z"/>
<path d="M5990 786 c0 -8 5 -18 10 -21 6 -3 10 3 10 14 0 12 -4 21 -10 21 -5
0 -10 -6 -10 -14z"/>
<path d="M5698 769 c-10 -10 -15 -25 -12 -34 8 -20 24 -19 24 1 0 8 4 13 9 10
11 -7 20 14 13 32 -6 16 -13 14 -34 -9z"/>
<path d="M5887 759 c4 -13 9 -17 15 -11 11 11 3 32 -12 32 -4 0 -6 -9 -3 -21z"/>
<path d="M5792 761 c4 -13 18 -16 19 -4 0 4 -5 9 -11 12 -7 2 -11 -2 -8 -8z"/>
<path d="M5925 760 c-4 -6 -2 -17 4 -23 15 -15 25 -2 13 19 -7 12 -11 13 -17
4z"/>
<path d="M5961 760 c0 -22 26 -53 40 -48 7 2 2 15 -14 33 -17 19 -26 25 -26
15z"/>
<path d="M5790 723 c1 -18 18 -35 24 -24 4 6 4 16 1 21 -7 12 -25 13 -25 3z"/>
<path d="M5357 784 c-8 -9 11 -44 23 -44 6 0 10 6 10 14 0 16 -24 38 -33 30z"/>
<path d="M5402 744 c1 -9 9 -19 16 -22 9 -3 13 2 10 14 -1 9 -9 19 -16 22 -9
3 -13 -2 -10 -14z"/>
<path d="M4169 4571 c29 -40 27 -60 -2 -33 -26 24 -47 29 -47 10 0 -7 -6 -25
-14 -40 l-14 -26 54 5 c49 5 56 3 78 -20 13 -14 26 -23 29 -21 15 15 -42 121
-77 146 -23 16 -26 7 -7 -21z"/>
<path d="M3160 4513 c-85 -24 -186 -52 -225 -64 -38 -11 -119 -34 -180 -51
-60 -17 -162 -45 -225 -63 -63 -18 -191 -51 -285 -75 -93 -23 -231 -57 -305
-75 -74 -19 -175 -43 -225 -54 -49 -11 -160 -36 -245 -56 -143 -33 -432 -94
-1150 -239 -151 -31 -285 -58 -297 -61 l-23 -5 0 -365 0 -365 23 0 c12 0 76
11 142 24 66 13 154 27 195 31 40 4 92 15 115 25 22 9 57 20 78 24 20 4 37 10
37 14 0 16 271 91 400 111 30 5 118 27 195 50 77 23 157 41 177 41 21 0 57 6
80 14 24 8 72 20 108 26 144 26 208 42 265 69 33 16 83 39 110 51 29 14 75 49
110 86 70 73 115 99 154 89 62 -17 82 -14 92 14 11 30 61 77 92 87 27 8 97 74
97 91 0 27 44 42 117 41 51 0 80 4 98 16 13 9 36 16 51 16 47 0 103 21 97 37
-3 7 2 33 11 56 13 34 26 47 69 68 44 23 52 31 55 58 2 17 -1 31 -7 31 -6 0
-11 8 -11 18 0 16 52 57 125 98 11 7 43 25 72 41 105 59 208 168 176 186 -5 2
-78 -16 -163 -40z"/>
<path d="M4293 4479 c-7 -7 -7 -18 1 -35 12 -27 19 -29 47 -13 17 8 18 13 8
25 -20 24 -45 34 -56 23z"/>
<path d="M3537 4431 c-16 -6 -14 -9 12 -29 17 -12 38 -22 47 -22 9 0 30 -11
46 -26 17 -14 37 -23 45 -20 10 4 13 1 8 -13 -3 -11 -2 -22 3 -25 6 -3 13 -18
16 -32 4 -15 24 -45 44 -66 32 -34 42 -39 75 -36 20 2 37 0 37 -4 0 -5 12 -8
26 -8 19 0 25 4 22 18 -3 13 -13 17 -45 17 -54 0 -63 11 -31 36 l26 21 -21 36
c-18 31 -22 33 -25 17 -2 -11 -7 -24 -12 -28 -9 -10 -50 13 -50 27 0 10 -14
22 -93 77 -31 22 -61 37 -67 34 -5 -3 -17 3 -27 14 -11 11 -25 16 -36 12z"/>
<path d="M4366 4411 c-4 -7 -5 -15 -2 -18 9 -9 19 4 14 18 -4 11 -6 11 -12 0z"/>
<path d="M4500 4383 c-8 -3 -23 -15 -34 -25 -18 -19 -18 -20 1 -46 26 -37 63
-110 63 -126 0 -7 14 -30 30 -51 17 -21 30 -48 30 -60 0 -31 49 -52 80 -35 52
28 91 80 60 80 -5 0 -13 0 -17 0 -5 0 -23 29 -41 63 -17 34 -36 69 -41 77 -4
8 -15 28 -24 45 -11 21 -23 29 -43 30 -23 0 -29 4 -29 24 0 26 -11 33 -35 24z"/>
<path d="M4312 4368 c-18 -18 -15 -27 17 -53 16 -14 31 -38 34 -54 4 -19 22
-40 55 -65 28 -20 53 -43 56 -51 5 -15 46 -21 46 -7 0 11 -111 176 -121 180
-5 2 -9 10 -9 18 0 7 -13 20 -30 29 -35 18 -33 18 -48 3z"/>
<path d="M3417 4353 c-13 -12 -7 -31 11 -37 9 -3 23 -9 30 -12 10 -5 10 2 -2
25 -16 31 -27 37 -39 24z"/>
<path d="M4250 4335 c0 -8 7 -15 16 -15 14 0 14 3 4 15 -7 8 -14 15 -16 15 -2
0 -4 -7 -4 -15z"/>
<path d="M3546 4332 c-3 -6 0 -12 7 -15 15 -6 16 -34 3 -55 -13 -21 -2 -23 33
-9 29 12 31 16 18 29 -8 8 -17 23 -19 34 -4 20 -32 31 -42 16z"/>
<path d="M4277 4296 c-4 -9 -2 -16 3 -16 5 0 11 -9 15 -19 7 -22 34 -36 47
-23 4 4 -7 23 -26 41 -27 26 -34 29 -39 17z"/>
<path d="M3491 4254 c0 -10 9 -32 20 -49 10 -16 26 -45 34 -62 13 -28 21 -33
50 -34 19 -1 49 -2 66 -3 17 0 34 -8 39 -16 26 -43 29 -45 41 -33 9 9 0 19
-37 42 -36 23 -50 28 -56 18 -6 -9 -8 -9 -8 1 0 6 -7 12 -16 12 -19 0 -74 37
-74 50 0 8 -43 76 -56 89 -2 2 -4 -4 -3 -15z"/>
<path d="M3148 4209 c14 -21 44 -48 66 -60 23 -11 47 -28 53 -37 7 -8 15 -13
18 -10 7 7 -121 131 -144 140 -16 6 -15 1 7 -33z"/>
<path d="M4353 4203 c5 -26 3 -33 -9 -33 -8 0 -18 10 -23 22 -5 14 -10 17 -15
10 -4 -6 2 -20 14 -32 11 -11 20 -24 20 -29 0 -5 9 -7 20 -4 17 4 20 0 20 -25
0 -24 5 -31 27 -35 16 -3 31 -3 35 -1 6 4 -70 137 -88 153 -4 3 -4 -9 -1 -26z"/>
<path d="M3960 4175 c-11 -13 -8 -15 21 -14 19 1 26 3 16 6 -9 2 -15 9 -12 14
10 15 -12 10 -25 -6z"/>
<path d="M4276 4156 c7 -19 38 -22 32 -3 -3 6 -12 13 -21 15 -12 2 -15 -1 -11
-12z"/>
<path d="M4070 4126 c0 -2 8 -10 18 -17 15 -13 16 -12 3 4 -13 16 -21 21 -21
13z"/>
<path d="M4503 4123 c-46 -9 -17 -60 40 -72 20 -5 37 -6 37 -3 0 6 -52 83 -54
81 0 -1 -11 -4 -23 -6z"/>
<path d="M4235 4099 c-11 -17 1 -21 15 -4 8 9 8 15 2 15 -6 0 -14 -5 -17 -11z"/>
<path d="M4195 4061 c10 -32 55 -70 83 -71 20 0 19 3 -15 32 -81 69 -77 66
-68 39z"/>
<path d="M5100 4058 c-11 -12 -20 -24 -20 -27 1 -7 55 -55 114 -101 l39 -31
34 33 c38 37 41 43 14 28 -29 -15 -32 -13 -29 17 2 21 -2 28 -17 31 -11 3 -26
13 -33 23 -7 11 -22 19 -33 19 -10 0 -19 4 -19 9 0 20 -31 19 -50 -1z"/>
<path d="M4307 4055 c6 -10 8 -27 5 -39 -5 -19 -4 -19 11 -7 15 12 19 10 37
-10 10 -13 19 -19 20 -14 0 6 -19 27 -41 49 -23 21 -37 31 -32 21z"/>
<path d="M3860 4042 c0 -14 6 -22 16 -22 14 0 15 3 3 18 -7 9 -15 19 -16 21
-2 2 -3 -5 -3 -17z"/>
<path d="M2934 4035 c-4 -9 -4 -18 -2 -21 9 -8 39 8 35 19 -6 18 -27 20 -33 2z"/>
<path d="M4850 4034 c0 -8 7 -14 15 -14 7 0 18 -8 24 -17 5 -10 12 -15 15 -12
11 11 -4 34 -29 46 -20 9 -25 8 -25 -3z"/>
<path d="M3477 4023 c6 -16 52 -37 61 -28 7 6 -27 32 -50 38 -11 3 -15 0 -11
-10z"/>
<path d="M2880 3996 c0 -9 5 -16 10 -16 6 0 10 4 10 9 0 6 -4 13 -10 16 -5 3
-10 -1 -10 -9z"/>
<path d="M3895 4000 c3 -5 11 -10 16 -10 6 0 7 5 4 10 -3 6 -11 10 -16 10 -6
0 -7 -4 -4 -10z"/>
<path d="M4045 3970 c3 -5 10 -10 16 -10 5 0 9 5 9 10 0 6 -7 10 -16 10 -8 0
-12 -4 -9 -10z"/>
<path d="M4816 3943 c-32 -17 -33 -25 -3 -21 17 2 21 -1 19 -17 -2 -16 -1 -17
7 -5 8 12 13 12 23 2 6 -6 19 -12 27 -12 8 0 11 3 7 7 -4 4 10 15 31 25 l38
17 -31 0 c-17 1 -37 -6 -44 -14 -19 -22 -31 -18 -25 8 7 28 -9 31 -49 10z"/>
<path d="M2890 3942 c0 -11 37 -32 44 -25 8 9 -14 33 -30 33 -8 0 -14 -3 -14
-8z"/>
<path d="M3106 3900 l-28 -18 41 1 c33 2 38 4 25 13 -12 9 -12 13 -2 17 7 3 9
5 3 5 -5 1 -23 -8 -39 -18z"/>
<path d="M5280 3910 c-9 -6 -10 -10 -3 -10 6 0 15 5 18 10 8 12 4 12 -15 0z"/>
<path d="M2790 3900 c0 -5 7 -10 16 -10 8 0 12 5 9 10 -3 6 -10 10 -16 10 -5
0 -9 -4 -9 -10z"/>
<path d="M5150 3900 c0 -5 5 -10 11 -10 5 0 7 5 4 10 -3 6 -8 10 -11 10 -2 0
-4 -4 -4 -10z"/>
<path d="M2656 3872 c-3 -6 10 -12 29 -14 22 -2 34 0 32 6 -5 14 -53 20 -61 8z"/>
<path d="M4837 3861 c-3 -11 0 -22 7 -24 8 -3 8 -8 -1 -19 -16 -19 -6 -29 22
-22 16 4 29 -3 48 -25 15 -18 35 -31 48 -31 21 0 20 3 -15 39 -24 25 -35 44
-31 52 6 8 4 10 -4 4 -8 -4 -24 3 -40 20 -27 25 -29 25 -34 6z"/>
<path d="M4916 3864 c-4 -10 -1 -14 6 -12 15 5 23 28 10 28 -5 0 -13 -7 -16
-16z"/>
<path d="M3180 3866 c0 -4 5 -16 10 -26 8 -15 5 -22 -12 -34 -30 -22 -46 -20
-69 7 -11 13 -18 17 -19 8 0 -9 -8 -11 -26 -7 -28 7 -29 2 -9 -46 8 -20 -19
-26 -31 -7 -3 6 -17 8 -31 4 -20 -5 -24 -3 -20 9 4 9 2 16 -4 16 -20 0 -21
-32 -3 -83 18 -49 22 -52 54 -54 19 0 37 -2 40 -3 16 -6 42 -11 95 -20 32 -6
65 -16 73 -22 10 -9 17 -8 28 4 14 13 14 24 0 97 -9 45 -22 94 -30 109 -15 28
-46 61 -46 48z"/>
<path d="M5465 3850 c-7 -23 2 -43 16 -34 5 3 7 10 3 15 -3 5 0 16 6 24 10 12
9 15 -3 15 -9 0 -18 -9 -22 -20z"/>
<path d="M2460 3828 c-11 -12 -18 -23 -16 -26 8 -7 66 29 61 38 -10 15 -23 12
-45 -12z"/>
<path d="M2555 3840 c-3 -5 1 -10 9 -10 9 0 16 5 16 10 0 6 -4 10 -9 10 -6 0
-13 -4 -16 -10z"/>
<path d="M2730 3844 c0 -5 7 -19 15 -30 8 -10 15 -14 15 -8 0 5 -7 19 -15 30
-8 10 -15 14 -15 8z"/>
<path d="M2942 3838 c-14 -14 -16 -28 -3 -28 5 0 11 9 14 20 6 23 5 24 -11 8z"/>
<path d="M5537 3843 c-9 -9 12 -33 30 -33 8 0 13 -6 10 -12 -2 -7 -13 -13 -25
-12 -17 0 -19 -3 -11 -18 12 -23 21 -23 49 2 l23 20 -28 30 c-30 31 -37 35
-48 23z"/>
<path d="M2830 3812 c0 -5 11 -12 25 -15 16 -3 24 0 22 7 -4 14 -47 21 -47 8z"/>
<path d="M5608 3724 c-2 -22 -10 -30 -38 -37 -33 -8 -34 -9 -15 -23 11 -8 26
-13 34 -12 9 2 34 -14 56 -34 22 -21 52 -43 68 -49 19 -8 27 -19 27 -35 0 -13
5 -24 11 -24 6 0 17 -7 25 -15 20 -20 54 -19 54 1 0 9 -9 29 -21 45 -11 16
-18 29 -14 29 3 0 -5 15 -18 33 -13 17 -36 53 -51 80 -23 41 -31 47 -59 47
-18 0 -38 5 -44 11 -9 9 -12 4 -15 -17z"/>
<path d="M2333 3715 c-14 -11 -15 -14 -3 -14 8 0 24 4 34 8 17 6 17 8 4 14 -9
3 -24 -1 -35 -8z"/>
<path d="M2874 3708 c-46 -34 -51 -41 -18 -25 27 14 64 47 52 47 -3 0 -18 -10
-34 -22z"/>
<path d="M2874 3647 c-27 -18 -56 -36 -64 -40 -8 -4 -25 -14 -37 -23 -14 -10
-23 -12 -23 -5 0 6 -4 11 -10 11 -20 0 -9 -20 15 -26 18 -5 35 2 65 26 36 29
45 30 41 7 -3 -16 32 -19 68 -7 l38 12 -15 39 c-8 22 -18 39 -22 39 -4 0 -30
-15 -56 -33z"/>
<path d="M2413 3633 c-15 -5 -18 -43 -4 -43 5 0 11 10 14 22 7 26 6 27 -10 21z"/>
<path d="M2302 3599 c3 -8 12 -13 20 -11 9 1 21 -5 28 -13 10 -12 10 -15 -4
-15 -20 0 -58 -21 -69 -38 -5 -7 -12 -10 -17 -7 -5 3 -22 -8 -38 -24 -19 -20
-35 -28 -48 -25 -27 7 -65 -35 -57 -64 3 -12 11 -22 19 -22 7 0 18 -9 24 -20
8 -14 21 -20 47 -20 l36 0 -7 40 c-4 24 -2 40 4 40 5 0 31 13 57 29 27 16 65
35 86 42 39 14 45 23 25 36 -7 4 -13 14 -13 22 0 16 -40 46 -74 56 -17 5 -22
4 -19 -6z"/>
<path d="M2450 3600 c0 -5 5 -10 10 -10 6 0 10 5 10 10 0 6 -4 10 -10 10 -5 0
-10 -4 -10 -10z"/>
<path d="M4810 3604 c0 -18 31 -74 41 -74 5 0 9 9 9 19 0 10 7 22 16 25 25 10
4 28 -24 21 -16 -4 -28 -1 -33 7 -5 7 -9 8 -9 2z"/>
<path d="M5860 3538 c0 -28 8 -39 37 -55 27 -15 42 1 16 16 -17 10 -17 12 1
22 17 11 16 13 -14 25 -41 18 -40 18 -40 -8z"/>
<path d="M2586 3531 c-4 -7 -5 -15 -2 -18 9 -9 19 4 14 18 -4 11 -6 11 -12 0z"/>
<path d="M2053 3450 c-27 -11 -28 -21 -8 -60 24 -47 49 -38 34 12 -6 21 -5 36
2 45 13 15 4 16 -28 3z"/>
<path d="M2408 3453 c23 -4 23 -5 6 -24 -21 -23 -14 -33 16 -24 34 11 23 50
-15 52 -22 1 -24 0 -7 -4z"/>
<path d="M1913 3432 c-17 -9 -55 -30 -85 -46 -52 -28 -128 -100 -128 -121 0
-15 -43 -55 -58 -55 -7 0 -12 5 -12 10 0 6 -4 10 -9 10 -5 0 -8 -27 -8 -60 2
-62 14 -76 39 -43 7 9 36 39 64 67 28 28 61 68 73 89 12 20 28 37 34 37 7 0
32 16 57 36 25 20 55 40 68 45 14 5 22 16 20 26 -4 24 -19 25 -55 5z"/>
<path d="M5784 3419 c-7 -12 13 -29 35 -29 11 0 10 5 -4 20 -21 23 -22 23 -31
9z"/>
<path d="M2651 3384 c0 -11 3 -14 6 -6 3 7 2 16 -1 19 -3 4 -6 -2 -5 -13z"/>
<path d="M1657 3323 c-12 -12 -7 -22 8 -17 8 4 15 10 15 15 0 11 -14 12 -23 2z"/>
<path d="M2002 3298 c-17 -17 -15 -38 3 -38 28 0 15 -27 -30 -64 -25 -21 -45
-42 -45 -47 0 -17 27 -9 54 16 14 13 26 22 26 19 0 -2 13 2 29 11 l29 15 -24
50 c-13 27 -25 50 -27 50 -2 0 -8 -5 -15 -12z"/>
<path d="M2117 3284 c-4 -4 -7 -17 -7 -28 0 -19 1 -19 17 -3 12 11 14 20 7 27
-6 6 -13 7 -17 4z"/>
<path d="M4626 3254 c-4 -9 -4 -19 -1 -22 6 -6 35 18 35 29 0 16 -28 10 -34
-7z"/>
<path d="M4660 3240 c0 -5 5 -10 10 -10 6 0 10 5 10 10 0 6 -4 10 -10 10 -5 0
-10 -4 -10 -10z"/>
<path d="M2551 3218 c-1 -21 -30 -50 -42 -43 -5 4 -17 1 -26 -4 -16 -9 -14
-10 10 -11 38 0 34 -25 -5 -27 -18 -2 -34 -7 -36 -13 -2 -5 -12 -10 -22 -10
-10 0 -20 -7 -24 -15 -3 -8 -11 -15 -18 -15 -20 0 -78 -59 -78 -78 0 -9 15
-27 34 -40 l33 -23 39 23 c22 12 41 25 44 28 3 4 25 7 50 9 29 1 53 9 67 22
14 14 28 19 42 14 24 -7 26 3 10 39 -10 21 -15 23 -41 15 -29 -8 -30 -7 -14
10 18 20 12 32 -12 25 -11 -3 -8 1 6 12 26 19 33 80 8 71 -9 -4 -17 1 -19 11
-4 16 -5 16 -6 0z m-161 -158 c0 -5 -4 -10 -10 -10 -5 0 -10 5 -10 10 0 6 5
10 10 10 6 0 10 -4 10 -10z m100 -19 c0 -8 -47 -21 -76 -21 -8 0 -14 7 -14 15
0 11 12 15 45 15 25 0 45 -4 45 -9z"/>
<path d="M4545 3211 c-3 -6 -5 -11 -3 -12 27 -6 38 -5 35 4 -5 15 -24 20 -32
8z"/>
<path d="M2157 3194 c-6 -7 -2 -23 19 -69 7 -17 18 -53 24 -80 6 -27 16 -55
22 -62 6 -8 8 -16 5 -19 -3 -4 3 -15 13 -26 15 -16 22 -18 39 -8 12 6 19 15
16 21 -4 5 -10 7 -15 4 -5 -3 -3 7 5 22 23 44 19 63 -12 63 -27 1 -27 1 -8 16
13 10 16 17 9 22 -6 4 -14 17 -18 30 -4 12 -11 20 -15 18 -4 -3 -5 8 -3 24 3
19 -1 31 -9 34 -34 11 -67 15 -72 10z"/>
<path d="M2360 3120 c0 -5 5 -10 11 -10 5 0 7 5 4 10 -3 6 -8 10 -11 10 -2 0
-4 -4 -4 -10z"/>
<path d="M3075 3110 c-3 -5 -2 -10 4 -10 5 0 13 5 16 10 3 6 2 10 -4 10 -5 0
-13 -4 -16 -10z"/>
<path d="M2327 3083 c-12 -12 -7 -22 8 -17 8 4 15 10 15 15 0 11 -14 12 -23 2z"/>
<path d="M2103 3070 c-25 -10 -30 -34 -10 -47 6 -4 12 -14 12 -20 0 -21 20
-15 21 7 1 11 7 26 13 34 7 8 10 20 6 26 -7 12 -12 12 -42 0z"/>
<path d="M3185 3028 c8 -56 19 -78 40 -78 16 0 15 8 -9 78 -10 28 -22 52 -28
52 -6 0 -7 -19 -3 -52z"/>
<path d="M2700 3046 c0 -9 0 -19 -1 -23 0 -4 4 -9 10 -11 14 -5 14 35 1 43 -5
3 -10 -1 -10 -9z"/>
<path d="M1443 3013 c-25 -5 -76 -60 -70 -76 6 -18 27 -20 27 -3 0 12 10 16
40 16 22 0 40 -2 40 -5 0 -3 -9 -22 -20 -42 -11 -21 -20 -43 -20 -50 0 -7 -9
-17 -20 -23 -15 -8 -20 -21 -20 -50 0 -51 -36 -115 -56 -99 -8 7 -14 31 -14
60 0 42 3 49 20 49 25 0 25 4 -2 40 -26 35 -32 36 -60 10 -21 -20 -22 -21 -5
-49 9 -16 17 -35 17 -43 0 -19 18 -80 29 -97 6 -10 19 -2 52 34 24 26 53 63
64 83 40 73 119 183 139 194 16 9 24 6 42 -16 13 -14 28 -26 34 -26 24 0 3
-36 -38 -63 -51 -34 -116 -117 -103 -130 5 -5 5 -21 0 -40 -5 -19 -5 -35 1
-42 5 -7 6 -15 2 -20 -4 -4 -1 -6 7 -3 8 2 15 11 17 20 2 16 46 82 68 103 6 6
24 30 40 55 45 69 66 89 84 83 36 -14 -3 19 -51 44 -29 14 -54 28 -57 32 -43
52 -103 73 -122 42 -11 -18 -12 -18 -27 -2 -9 10 -26 16 -38 14z"/>
<path d="M2135 2975 c-23 -10 -25 -13 -10 -13 28 -1 61 13 49 20 -5 3 -22 0
-39 -7z"/>
<path d="M2072 2964 c-33 -16 -72 -55 -66 -65 6 -11 39 6 72 36 30 28 26 46
-6 29z"/>
<path d="M1777 2953 c-9 -8 12 -33 28 -33 8 0 11 8 8 20 -5 20 -23 26 -36 13z"/>
<path d="M1923 2953 c-14 -5 -18 -33 -5 -33 4 0 14 5 22 10 17 11 2 30 -17 23z"/>
<path d="M1870 2930 c0 -5 5 -10 10 -10 6 0 10 5 10 10 0 6 -4 10 -10 10 -5 0
-10 -4 -10 -10z"/>
<path d="M2153 2923 c-7 -2 -13 -15 -13 -27 0 -22 -61 -71 -138 -113 -27 -15
-32 -7 -37 59 -1 24 -3 45 -4 47 0 2 -12 -9 -26 -25 -24 -28 -24 -29 -5 -49
13 -14 16 -25 9 -37 -6 -12 -4 -21 8 -34 10 -10 18 -27 18 -38 0 -31 29 -30
62 1 63 61 81 74 109 79 16 3 43 14 60 24 17 11 34 17 37 13 4 -3 0 15 -9 40
-19 55 -29 64 -51 45 -15 -11 -16 -11 -10 5 3 9 5 17 4 16 -1 0 -8 -3 -14 -6z"/>
<path d="M2677 2913 c-10 -3 -16 -10 -14 -16 6 -20 25 -19 37 2 11 21 9 22
-23 14z"/>
<path d="M1821 2835 c19 -66 42 -138 45 -143 1 -2 12 5 23 15 22 18 29 53 10
53 -6 0 -8 8 -4 19 4 15 0 20 -17 23 -16 2 -22 9 -21 22 1 11 -6 26 -15 34 -9
7 -12 11 -6 8 9 -5 24 13 24 27 0 1 -13 2 -28 2 l-28 0 17 -60z"/>
<path d="M2285 2840 c-3 -5 -2 -10 4 -10 5 0 13 5 16 10 3 6 2 10 -4 10 -5 0
-13 -4 -16 -10z"/>
<path d="M2380 2835 c0 -8 4 -15 10 -15 5 0 7 7 4 15 -4 8 -8 15 -10 15 -2 0
-4 -7 -4 -15z"/>
<path d="M1726 2725 c-3 -9 -6 -24 -5 -33 0 -9 5 -4 10 12 9 32 6 48 -5 21z"/>
<path d="M1802 2673 c-7 -16 -19 -39 -26 -53 -8 -14 -17 -38 -21 -55 -6 -29
-6 -29 10 -10 18 21 65 119 65 135 0 20 -16 9 -28 -17z"/>
<path d="M1490 2631 c0 -6 4 -13 10 -16 6 -3 7 1 4 9 -7 18 -14 21 -14 7z"/>
<path d="M1297 2564 c-4 -4 -7 -14 -7 -23 0 -11 3 -12 11 -4 6 6 10 16 7 23
-2 6 -7 8 -11 4z"/>
<path d="M1848 2534 c-15 -21 -25 -40 -22 -43 3 -3 12 3 19 14 8 11 19 26 25
33 6 7 10 17 8 23 -2 6 -16 -6 -30 -27z"/>
<path d="M1638 2506 c-16 -31 -28 -70 -28 -87 0 -17 -5 -39 -10 -50 -6 -10 -7
-19 -2 -19 5 0 15 21 22 48 6 26 16 59 22 74 6 15 9 30 8 34 -1 4 4 10 10 14
7 4 10 15 8 25 -2 11 -13 -3 -30 -39z"/>
<path d="M1457 2402 c-9 -23 -21 -42 -27 -42 -6 0 -15 -12 -21 -27 -7 -16 -13
-23 -16 -15 -11 29 -31 8 -43 -45 -7 -32 -19 -70 -26 -85 -15 -29 -12 -33 29
-29 12 2 17 -5 17 -24 0 -20 -4 -26 -15 -21 -13 5 -15 0 -9 -31 4 -23 3 -34
-3 -30 -13 8 -26 -134 -14 -146 5 -5 12 0 16 12 7 24 25 28 25 6 0 -8 4 -15 9
-15 5 0 11 39 14 88 4 97 28 213 59 284 13 30 18 57 14 73 -4 14 -2 35 4 46 6
11 10 25 8 31 -3 7 -12 -7 -21 -30z"/>
<path d="M1544 2199 c0 -10 4 -19 8 -19 4 0 8 6 8 14 0 8 -4 17 -8 20 -4 2 -8
-4 -8 -15z"/>
<path d="M2135 2160 c3 -5 10 -10 16 -10 5 0 9 5 9 10 0 6 -7 10 -16 10 -8 0
-12 -4 -9 -10z"/>
<path d="M2170 2120 c0 -14 5 -32 10 -40 8 -12 10 -10 10 10 0 14 -5 32 -10
40 -8 12 -10 10 -10 -10z"/>
<path d="M1857 2124 c-4 -4 -7 -17 -7 -28 0 -19 1 -19 17 -3 12 11 14 20 7 27
-6 6 -13 7 -17 4z"/>
<path d="M2105 2060 c3 -5 8 -10 11 -10 2 0 4 5 4 10 0 6 -5 10 -11 10 -5 0
-7 -4 -4 -10z"/>
<path d="M1681 2023 c-7 -22 -14 -73 -15 -114 -1 -70 0 -74 22 -77 20 -3 22 1
22 36 0 21 3 66 6 98 4 43 2 64 -8 77 -13 18 -15 16 -27 -20z"/>
<path d="M1967 1989 c4 -13 9 -17 15 -11 11 11 3 32 -12 32 -4 0 -6 -9 -3 -21z"/>
<path d="M1485 1980 c-3 -5 -1 -10 4 -10 6 0 11 5 11 10 0 6 -2 10 -4 10 -3 0
-8 -4 -11 -10z"/>
<path d="M1344 1885 c-3 -8 6 -29 20 -46 l26 -31 0 27 c0 49 -33 85 -46 50z"/>
<path d="M1571 1863 c-1 -12 4 -25 9 -28 12 -7 12 2 0 30 -8 19 -9 19 -9 -2z"/>
<path d="M1485 1813 c5 -49 33 -142 34 -113 1 21 -26 151 -33 158 -3 3 -4 -17
-1 -45z"/>
<path d="M1560 1785 c0 -19 12 -25 27 -14 19 16 16 28 -7 26 -11 -1 -20 -6
-20 -12z"/>
<path d="M1960 1741 c0 -10 6 -23 13 -29 9 -8 12 -3 12 19 0 17 -5 29 -12 29
-7 0 -13 -8 -13 -19z"/>
<path d="M1573 1695 c0 -8 4 -15 9 -15 4 0 8 4 8 9 0 6 -4 12 -8 15 -5 3 -9
-1 -9 -9z"/>
<path d="M1751 1604 c0 -11 3 -14 6 -6 3 7 2 16 -1 19 -3 4 -6 -2 -5 -13z"/>
<path d="M1477 1564 c-8 -9 4 -75 19 -104 8 -14 18 -37 23 -51 10 -29 66 -72
146 -115 28 -14 60 -35 72 -47 13 -11 25 -18 28 -15 3 3 -11 18 -32 34 -62 47
-127 119 -153 168 -13 25 -27 46 -31 46 -4 0 -19 20 -33 45 -28 47 -29 48 -39
39z"/>
<path d="M1597 1498 c8 -24 19 -47 25 -53 6 -6 6 -2 -1 12 -6 12 -11 30 -11
41 0 11 -6 25 -14 31 -12 10 -11 5 1 -31z"/>
<path d="M1760 1511 c-6 -17 -9 -35 -5 -42 4 -6 1 -16 -6 -21 -11 -7 -9 -8 5
-4 14 5 17 2 12 -10 -8 -22 42 -97 61 -90 7 3 13 0 13 -8 0 -23 53 -60 82 -57
22 2 28 -3 39 -33 7 -19 19 -38 27 -41 9 -3 12 0 9 9 -3 7 0 19 6 25 9 9 8 11
-5 6 -11 -4 -18 0 -22 13 -4 11 -23 27 -44 37 -62 27 -66 30 -75 65 -5 19 -17
46 -27 60 -10 15 -22 39 -25 56 -17 76 -25 82 -45 35z m28 -32 c-3 -8 -7 -3
-11 10 -4 17 -3 21 5 13 5 -5 8 -16 6 -23z"/>
<path d="M1675 1371 c39 -43 65 -57 65 -36 0 8 -10 20 -22 25 -13 5 -34 17
-48 27 -22 15 -22 13 5 -16z"/>
<path d="M1885 1221 c-3 -5 -1 -12 5 -16 5 -3 10 1 10 9 0 18 -6 21 -15 7z"/>
<path d="M1810 1201 c0 -13 22 -29 53 -36 36 -9 35 6 -2 28 -32 19 -51 22 -51
8z"/>
<path d="M2022 1178 c3 -7 13 -15 24 -17 16 -3 17 -1 5 13 -16 19 -34 21 -29
4z"/>
<path d="M2020 1141 c0 -5 5 -13 10 -16 6 -3 10 -2 10 4 0 5 -4 13 -10 16 -5
3 -10 2 -10 -4z"/>
<path d="M7066 1101 c-9 -14 5 -42 18 -38 18 6 20 47 2 47 -8 0 -17 -4 -20 -9z"/>
<path d="M7435 1090 c3 -5 8 -10 11 -10 2 0 4 5 4 10 0 6 -5 10 -11 10 -5 0
-7 -4 -4 -10z"/>
<path d="M7225 1070 c-3 -5 -1 -10 4 -10 6 0 11 5 11 10 0 6 -2 10 -4 10 -3 0
-8 -4 -11 -10z"/>
<path d="M7820 1030 c0 -5 5 -10 10 -10 6 0 10 5 10 10 0 6 -4 10 -10 10 -5 0
-10 -4 -10 -10z"/>
<path d="M2265 970 c-3 -5 -1 -10 4 -10 6 0 11 5 11 10 0 6 -2 10 -4 10 -3 0
-8 -4 -11 -10z"/>
<path d="M8023 933 c-24 -9 -13 -24 15 -21 15 2 26 8 25 13 -2 12 -23 16 -40
8z"/>
<path d="M1320 837 c-34 -17 -46 -29 -48 -48 -5 -39 25 -46 58 -14 14 14 30
25 36 25 5 0 18 7 28 15 16 12 17 17 6 30 -16 19 -25 18 -80 -8z"/>
<path d="M1413 797 c-3 -6 -2 -12 3 -14 6 -2 8 -19 6 -38 -4 -31 -2 -35 19
-35 13 0 33 -7 43 -15 11 -8 29 -12 42 -9 14 4 29 0 39 -9 8 -8 20 -17 27 -20
10 -4 11 -7 1 -18 -19 -19 -16 -29 8 -29 19 0 58 35 59 52 0 3 -15 11 -34 18
-18 6 -72 37 -119 70 -56 37 -89 54 -94 47z"/>
<path d="M4348 770 c-4 -14 -3 -26 2 -28 6 -2 10 -10 10 -18 0 -9 5 -12 10 -9
7 4 8 11 1 18 -5 7 -11 23 -13 37 l-3 25 -7 -25z"/>
<path d="M4434 758 c4 -46 5 -48 16 -48 6 0 10 18 10 40 0 28 -4 40 -14 40
-10 0 -13 -10 -12 -32z"/>
<path d="M4477 776 c-3 -8 1 -20 9 -27 8 -6 12 -20 9 -29 -3 -9 1 -23 10 -30
12 -10 16 -9 21 5 4 10 1 20 -6 25 -7 4 -10 15 -7 23 3 8 -2 22 -12 31 -16 15
-19 15 -24 2z"/>
<path d="M4290 767 c0 -19 16 -31 24 -18 3 5 -1 14 -9 21 -12 10 -15 10 -15
-3z"/>
<path d="M4390 760 c6 -11 13 -20 15 -20 3 0 5 9 5 20 0 11 -7 20 -15 20 -13
0 -14 -4 -5 -20z"/>
<path d="M4110 760 c0 -5 5 -10 10 -10 6 0 10 5 10 10 0 6 -4 10 -10 10 -5 0
-10 -4 -10 -10z"/>
<path d="M4225 760 c3 -5 8 -10 11 -10 2 0 4 5 4 10 0 6 -5 10 -11 10 -5 0 -7
-4 -4 -10z"/>
<path d="M1261 731 c-6 -10 -7 -21 -4 -25 9 -8 33 14 33 30 0 20 -18 17 -29
-5z"/>
<path d="M4170 740 c0 -5 5 -10 10 -10 6 0 10 5 10 10 0 6 -4 10 -10 10 -5 0
-10 -4 -10 -10z"/>
<path d="M4270 715 c0 -8 5 -15 10 -15 6 0 10 7 10 15 0 8 -4 15 -10 15 -5 0
-10 -7 -10 -15z"/>
<path d="M4320 711 c0 -5 7 -14 15 -21 16 -14 18 -10 9 14 -6 17 -24 22 -24 7z"/>
<path d="M4390 710 c0 -5 5 -12 10 -15 15 -10 12 -28 -4 -22 -17 7 -30 -20
-14 -29 13 -8 38 23 38 47 0 9 -7 19 -15 23 -8 3 -15 1 -15 -4z"/>
<path d="M4176 668 c10 -36 26 -58 20 -28 -3 14 -6 31 -6 38 0 6 -5 12 -11 12
-6 0 -8 -9 -3 -22z"/>
<path d="M4246 644 c-4 -14 -5 -28 -3 -31 3 -2 8 8 11 23 4 14 5 28 3 31 -3 2
-8 -8 -11 -23z"/>
<path d="M4306 662 c-3 -6 -1 -14 5 -17 15 -10 25 3 12 16 -7 7 -13 7 -17 1z"/>
<path d="M1660 645 c-17 -20 -11 -25 18 -14 13 5 20 13 17 19 -9 14 -21 12
-35 -5z"/>
<path d="M4151 624 c0 -11 3 -14 6 -6 3 7 2 16 -1 19 -3 4 -6 -2 -5 -13z"/>
<path d="M1727 619 c-9 -6 -15 -14 -13 -18 3 -4 -6 -20 -20 -37 -14 -16 -22
-22 -18 -14 5 12 4 12 -5 4 -15 -14 -11 -46 7 -52 6 -2 15 5 20 15 4 11 17 18
32 18 17 0 25 6 25 17 0 23 8 29 47 37 30 7 31 8 13 18 -34 17 -69 22 -88 12z"/>
<path d="M4256 604 c-6 -21 -9 -24 -22 -13 -8 6 -18 9 -21 5 -11 -11 13 -41
31 -40 9 1 16 -6 16 -15 0 -30 21 -43 42 -24 20 18 23 33 7 33 -20 0 -40 30
-34 49 3 11 2 22 -4 25 -5 3 -12 -6 -15 -20z"/>
<path d="M4141 597 c-1 -5 4 -18 10 -29 9 -17 13 -18 20 -7 13 21 11 32 -5 26
-8 -3 -17 -1 -20 6 -2 7 -5 8 -5 4z"/>
<path d="M1839 566 c-9 -20 -8 -27 10 -45 12 -12 26 -21 31 -21 6 0 10 -9 10
-20 0 -25 11 -25 40 0 13 11 31 20 40 20 14 0 15 -7 11 -42 -6 -40 -8 -43 -36
-43 -23 0 -30 -4 -30 -20 0 -16 8 -21 38 -23 32 -3 38 0 35 15 -2 13 3 17 20
16 16 -2 25 4 32 21 9 25 42 42 60 31 6 -4 8 -11 5 -16 -6 -8 0 -10 45 -13 8
-1 21 -5 28 -9 8 -6 20 -3 31 7 24 21 48 22 27 0 -23 -23 -20 -27 19 -22 39 4
43 1 18 -18 -17 -13 -17 -13 0 -14 22 0 22 -17 -3 -58 l-20 -32 23 -1 c28 -2
51 -5 57 -8 3 -1 17 -4 33 -6 23 -3 27 0 27 22 0 15 -3 24 -6 20 -9 -9 -52 35
-56 58 -5 30 25 25 32 -5 4 -15 13 -25 25 -26 55 -3 79 -26 53 -52 -14 -14
-11 -18 25 -27 20 -6 27 -4 27 8 0 8 -5 17 -12 19 -19 7 10 68 32 68 10 0 21
-6 23 -12 4 -10 8 -10 15 1 7 9 12 10 16 2 10 -16 62 -13 76 4 16 19 34 19 50
-1 8 -8 9 -14 4 -13 -19 3 -53 -14 -59 -29 -3 -9 -3 -13 1 -10 3 4 15 -3 25
-15 l18 -22 1 24 c0 17 4 22 16 17 9 -3 21 -6 29 -6 7 0 15 -14 19 -31 4 -22
10 -30 21 -25 8 3 15 1 15 -4 0 -5 12 -2 28 6 15 7 39 14 53 14 16 0 30 7 33
16 4 9 9 14 12 11 4 -3 12 0 20 7 15 16 58 13 79 -4 12 -10 18 -10 29 -1 11 9
15 9 18 0 8 -24 26 2 26 37 0 43 18 59 47 40 24 -16 76 -10 88 10 6 11 15 10
47 -1 22 -8 53 -14 68 -14 15 1 49 -1 76 -4 27 -4 57 -2 66 3 10 5 32 11 49
12 17 1 31 6 31 10 0 4 -4 8 -9 8 -5 0 -11 9 -14 19 -7 29 -73 40 -92 15 -8
-11 -14 -14 -15 -6 0 9 -25 11 -97 10 -338 -8 -877 48 -1273 132 -102 22 -188
40 -193 40 -4 0 -12 -11 -18 -24z"/>
<path d="M4030 580 c0 -5 5 -10 10 -10 6 0 10 5 10 10 0 6 -4 10 -10 10 -5 0
-10 -4 -10 -10z"/>
<path d="M1555 560 c-7 -21 0 -40 16 -40 5 0 9 14 9 30 0 34 -15 40 -25 10z"/>
<path d="M4090 554 c0 -8 4 -14 10 -14 5 0 18 -9 29 -21 10 -11 22 -16 25 -11
3 6 -1 12 -9 16 -8 3 -15 14 -15 24 0 11 -8 18 -20 19 -11 1 -20 -4 -20 -13z"/>
<path d="M3750 543 c0 -13 5 -23 10 -23 13 0 13 11 0 30 -8 12 -10 11 -10 -7z"/>
<path d="M4180 544 c-16 -19 -4 -34 28 -34 24 -1 25 -2 10 -14 -16 -12 -16
-14 7 -24 29 -13 37 -4 29 35 -7 36 -56 60 -74 37z"/>
<path d="M4343 516 c-24 -25 -28 -36 -15 -36 12 0 52 39 52 50 0 16 -14 11
-37 -14z"/>
<path d="M1626 505 c4 -8 11 -15 16 -15 6 0 5 6 -2 15 -7 8 -14 15 -16 15 -2
0 -1 -7 2 -15z"/>
<path d="M3313 493 c9 -2 23 -2 30 0 6 3 -1 5 -18 5 -16 0 -22 -2 -12 -5z"/>
<path d="M3428 493 c7 -3 16 -2 19 1 4 3 -2 6 -13 5 -11 0 -14 -3 -6 -6z"/>
<path d="M3470 490 c0 -5 5 -10 10 -10 6 0 10 5 10 10 0 6 -4 10 -10 10 -5 0
-10 -4 -10 -10z"/>
<path d="M3540 492 c0 -4 18 -8 40 -9 52 -2 52 11 0 15 -22 1 -40 -1 -40 -6z"/>
<path d="M3640 490 c0 -5 7 -10 16 -10 8 0 12 5 9 10 -3 6 -10 10 -16 10 -5 0
-9 -4 -9 -10z"/>
<path d="M3685 490 c-3 -5 1 -10 10 -10 9 0 13 5 10 10 -3 6 -8 10 -10 10 -2
0 -7 -4 -10 -10z"/>
<path d="M3728 489 c-6 -4 8 -8 31 -11 23 -2 46 1 51 7 9 11 -64 15 -82 4z"/>
<path d="M3895 490 c-3 -5 3 -10 14 -10 12 0 21 5 21 10 0 6 -6 10 -14 10 -8
0 -18 -4 -21 -10z"/>
<path d="M4166 492 c-3 -6 -1 -14 5 -17 15 -10 25 3 12 16 -7 7 -13 7 -17 1z"/>
<path d="M5500 485 c0 -8 5 -15 10 -15 6 0 10 7 10 15 0 8 -4 15 -10 15 -5 0
-10 -7 -10 -15z"/>
<path d="M5687 489 c7 -7 15 -10 18 -7 3 3 -2 9 -12 12 -14 6 -15 5 -6 -5z"/>
<path d="M4730 400 c0 -5 5 -10 10 -10 6 0 10 5 10 10 0 6 -4 10 -10 10 -5 0
-10 -4 -10 -10z"/>
<path d="M3570 390 c0 -5 5 -10 11 -10 5 0 7 5 4 10 -3 6 -8 10 -11 10 -2 0
-4 -4 -4 -10z"/>
<path d="M4665 390 c3 -5 8 -10 11 -10 2 0 4 5 4 10 0 6 -5 10 -11 10 -5 0 -7
-4 -4 -10z"/>
<path d="M2191 377 c-14 -18 -33 -69 -22 -63 5 3 14 -1 21 -9 24 -29 38 -17
38 30 -1 45 -18 64 -37 42z"/>
<path d="M2100 363 c0 -6 -10 -14 -22 -18 -16 -4 -19 -8 -10 -12 16 -6 49 23
39 33 -4 4 -7 3 -7 -3z"/>
<path d="M3755 290 c-3 -5 -15 -10 -26 -10 -12 0 -19 -7 -19 -20 0 -11 -4 -20
-9 -20 -5 0 -7 -9 -4 -20 4 -15 11 -19 24 -15 13 4 19 1 19 -9 0 -22 61 -32
75 -12 11 14 15 13 40 -10 17 -15 35 -24 46 -21 11 3 19 1 19 -4 0 -5 5 -9 11
-9 6 0 8 9 4 20 -10 33 15 90 41 90 30 0 39 26 11 34 -11 3 -26 1 -33 -5 -9
-7 -15 -5 -23 8 -9 17 -12 16 -40 -11 -29 -28 -31 -28 -56 -12 -14 9 -25 21
-25 26 0 13 -47 13 -55 0z"/>
<path d="M2552 245 c3 -21 48 -35 48 -15 0 6 -5 8 -12 4 -6 -4 -18 2 -25 12
-14 19 -15 19 -11 -1z"/>
<path d="M3526 245 c-11 -8 -30 -15 -42 -15 -37 0 -36 -17 1 -24 20 -4 44 -2
56 4 11 7 27 9 34 6 11 -4 12 0 6 17 -10 27 -30 31 -55 12z"/>
<path d="M2502 239 c2 -6 8 -10 13 -10 5 0 11 4 13 10 2 6 -4 11 -13 11 -9 0
-15 -5 -13 -11z"/>
<path d="M3590 240 c0 -5 5 -10 11 -10 5 0 7 5 4 10 -3 6 -8 10 -11 10 -2 0
-4 -4 -4 -10z"/>
<path d="M3198 198 c-16 -5 -28 -14 -28 -19 0 -5 12 -7 28 -4 25 6 25 5 -5
-11 -23 -11 -33 -24 -33 -40 0 -15 5 -22 13 -18 8 3 18 -5 25 -18 6 -14 11
-17 11 -8 1 14 23 27 74 44 23 7 22 30 -2 23 -27 -7 -53 11 -46 33 8 24 -4 29
-37 18z"/>
<path d="M3537 183 c-13 -12 -7 -23 13 -23 13 0 18 5 14 15 -7 16 -17 19 -27
8z"/>
<path d="M3470 170 c-8 -5 -24 -7 -34 -4 -15 5 -18 3 -12 -12 4 -9 2 -21 -5
-24 -8 -6 -8 -9 0 -14 6 -4 22 4 36 18 14 15 30 26 35 26 6 0 10 5 10 10 0 13
-11 13 -30 0z"/>
<path d="M2820 160 c-8 -5 -11 -12 -7 -16 4 -4 15 0 24 9 18 18 8 23 -17 7z"/>
<path d="M2955 160 c-3 -5 -2 -10 4 -10 5 0 13 5 16 10 3 6 2 10 -4 10 -5 0
-13 -4 -16 -10z"/>
<path d="M3798 163 c-37 -6 -36 -23 2 -23 20 0 30 5 30 15 0 8 -1 14 -2 14 -2
-1 -15 -4 -30 -6z"/>
<path d="M3276 84 c-5 -14 -4 -15 9 -4 17 14 19 20 6 20 -5 0 -12 -7 -15 -16z"/>
<path d="M3596 91 c-3 -5 -15 -7 -26 -4 -13 3 -22 -1 -26 -11 -4 -9 -23 -24
-43 -33 -34 -16 -35 -17 -11 -20 14 -2 47 -8 73 -12 l48 -8 15 35 c8 20 12 42
10 49 -6 15 -32 17 -40 4z"/>
</g>
</svg>
