<?xml version="1.0" standalone="no"?>
<!DOCTYPE svg PUBLIC "-//W3C//DTD SVG 20010904//EN"
 "http://www.w3.org/TR/2001/REC-SVG-20010904/DTD/svg10.dtd">
<svg version="1.0" xmlns="http://www.w3.org/2000/svg"
 width="427.000000pt" height="427.000000pt" viewBox="0 0 427.000000 427.000000"
 preserveAspectRatio="xMidYMid meet">

<g transform="translate(0.000000,427.000000) scale(0.100000,-0.100000)"
fill="#000000" stroke="none">
<path d="M2547 3489 c-27 -40 -43 -132 -29 -163 11 -24 17 -26 74 -26 45 0 72
6 96 20 17 11 32 23 32 26 0 4 -34 4 -75 2 l-74 -5 -3 86 c-3 86 -3 86 -21 60z
m8 -115 c-3 -24 -10 -46 -15 -49 -23 -14 -21 76 4 120 10 19 11 19 14 -4 2
-13 1 -44 -3 -67z m105 -54 c-20 -13 -70 -13 -70 0 0 6 19 10 43 10 31 0 38
-3 27 -10z"/>
<path d="M2705 3493 c-29 -7 -85 -52 -85 -67 0 -22 29 -27 59 -11 28 14 61 55
61 75 0 10 -3 11 -35 3z m5 -20 c0 -13 -44 -53 -59 -53 -10 0 -6 9 14 30 28
29 45 38 45 23z"/>
<path d="M2421 3370 c-12 -27 -24 -64 -28 -80 -11 -57 31 -100 98 -100 34 0
129 38 129 51 0 5 -36 9 -81 9 l-80 0 4 53 c5 59 -1 117 -13 117 -4 0 -17 -22
-29 -50z m18 -112 c-9 -21 -14 -26 -20 -16 -14 21 -10 66 8 106 l17 37 4 -49
c2 -27 -2 -62 -9 -78z m129 -29 c-9 -5 -39 -13 -65 -18 l-48 -9 24 19 c15 12
38 19 65 19 32 -1 37 -3 24 -11z"/>
<path d="M1865 3330 c-116 -16 -262 -63 -384 -125 -207 -104 -412 -319 -531
-553 -87 -172 -120 -302 -127 -507 -8 -235 33 -420 143 -636 83 -164 164 -277
275 -384 177 -170 417 -295 656 -341 188 -36 450 -16 633 48 400 141 700 433
839 816 57 158 66 217 66 442 -1 195 -2 209 -28 295 -54 174 -151 359 -224
426 -25 24 -25 23 7 -41 77 -154 138 -351 161 -525 26 -201 -11 -422 -106
-621 -82 -174 -176 -300 -304 -410 -146 -125 -262 -189 -436 -238 -86 -24
-253 -52 -261 -43 -2 2 25 62 61 133 44 87 89 159 140 222 74 92 74 92 34 70
-54 -31 -177 -141 -214 -193 -17 -23 -50 -83 -74 -133 -40 -85 -61 -112 -61
-78 0 22 64 154 117 241 117 193 327 426 483 536 49 35 88 65 86 67 -7 6 -109
-41 -176 -81 -174 -105 -365 -292 -479 -467 -20 -30 -65 -111 -101 -180 -50
-97 -70 -126 -87 -128 -32 -5 -37 27 -30 196 4 80 4 142 0 139 -3 -3 -20 -63
-37 -133 l-32 -127 -19 64 c-14 45 -20 93 -19 164 0 107 10 151 63 270 30 66
30 68 7 40 -39 -47 -113 -202 -149 -314 l-33 -101 -17 72 c-26 113 -36 211
-37 362 0 77 -2 137 -5 135 -2 -3 -14 -63 -26 -135 -33 -204 -24 -304 48 -528
10 -33 -56 -12 -100 32 -72 70 -116 188 -138 372 -7 55 -17 100 -22 100 -15 0
-2 -231 18 -323 9 -43 14 -81 11 -84 -9 -10 -56 38 -76 77 -44 86 -92 275
-110 435 -19 175 -7 507 26 686 9 48 14 94 11 101 -7 21 -73 -197 -98 -322
-30 -151 -33 -475 -6 -641 9 -59 17 -115 17 -125 0 -30 -101 117 -159 230 -98
193 -135 409 -112 658 19 212 70 354 191 535 68 101 229 264 329 332 92 63
256 146 356 181 50 17 94 35 100 41 5 5 7 8 5 8 -3 -1 -32 -5 -65 -9z"/>
<path d="M2283 3263 c-13 -20 -18 -47 -18 -101 0 -67 2 -76 25 -94 21 -17 34
-19 78 -15 57 6 143 43 150 65 5 17 -72 16 -134 -3 -27 -8 -50 -15 -51 -15 -2
0 -3 36 -3 79 0 114 -13 137 -47 84z m37 -63 c0 -56 -15 -110 -30 -110 -22 0
-17 134 6 172 13 21 24 -8 24 -62z m160 -89 c0 -10 -101 -51 -125 -51 -22 0
-18 18 8 31 43 23 117 36 117 20z"/>
<path d="M2150 3145 c-39 -81 -29 -215 16 -215 8 0 14 -5 14 -11 0 -21 140 -5
182 20 42 25 54 48 30 55 -24 8 -125 -10 -161 -28 l-30 -16 6 69 c6 76 -1 128
-21 156 -12 16 -15 14 -36 -30z m45 -73 c-1 -37 -7 -80 -14 -97 -12 -29 -13
-29 -27 -11 -19 27 -18 102 3 153 24 57 38 40 38 -45z m180 -107 c-10 -9 -35
-20 -55 -25 -36 -10 -127 -14 -118 -5 14 14 118 44 153 44 37 0 39 -1 20 -14z"/>
<path d="M2000 3038 c-41 -67 -50 -204 -18 -273 33 -74 97 72 83 190 -8 64
-24 115 -36 115 -5 0 -18 -15 -29 -32z m48 -128 c-4 -89 -19 -140 -41 -140
-33 0 -36 195 -3 245 18 27 19 28 33 9 11 -14 14 -42 11 -114z"/>
<path d="M1837 2894 c-29 -56 -40 -135 -28 -197 12 -68 45 -147 61 -147 17 0
40 63 46 128 6 63 -25 205 -50 231 -12 11 -16 9 -29 -15z m63 -124 c12 -64 8
-112 -12 -163 -14 -37 -29 -30 -50 24 -22 56 -22 150 -2 220 l16 54 18 -36
c10 -19 24 -64 30 -99z"/>
<path d="M2179 2820 c-54 -9 -100 -32 -129 -62 -26 -28 -25 -36 3 -43 49 -13
201 38 257 85 l35 29 -60 0 c-33 -1 -81 -5 -106 -9z m101 -25 c-26 -32 -220
-81 -220 -56 0 13 59 58 85 64 11 2 49 5 84 6 55 1 62 -1 51 -14z"/>
<path d="M1686 2730 c-34 -116 -11 -255 59 -351 l38 -51 15 28 c11 20 16 60
16 129 1 95 -1 104 -35 175 -20 41 -45 86 -56 100 l-21 25 -16 -55z m98 -120
c20 -61 24 -202 7 -229 -13 -21 -36 0 -66 59 -44 86 -55 233 -23 293 9 18 13
15 39 -29 16 -27 35 -69 43 -94z"/>
<path d="M2075 2671 c-33 -9 -74 -25 -91 -34 -33 -17 -84 -71 -84 -89 0 -18
101 -2 170 27 70 30 100 50 131 89 l20 26 -43 -1 c-24 0 -70 -8 -103 -18z m96
-15 c-29 -31 -153 -92 -203 -101 -45 -9 -51 9 -15 43 35 33 158 78 221 81 18
1 18 -1 -3 -23z"/>
<path d="M2753 2628 c-7 -8 -19 -31 -28 -51 -14 -35 -14 -38 5 -57 21 -21 83
-27 109 -11 11 7 4 12 -27 20 -41 11 -41 12 -44 63 -2 42 -5 49 -15 36z m-8
-67 c-3 -12 -11 -21 -16 -21 -6 0 -8 3 -6 8 2 4 7 16 11 26 9 25 20 13 11 -13z
m58 -48 c-7 -2 -19 -2 -25 0 -7 3 -2 5 12 5 14 0 19 -2 13 -5z"/>
<path d="M2830 2606 c-41 -13 -49 -43 -10 -38 27 3 67 36 54 45 -5 3 -25 0
-44 -7z m15 -16 c-3 -5 -11 -10 -16 -10 -6 0 -7 5 -4 10 3 6 11 10 16 10 6 0
7 -4 4 -10z"/>
<path d="M2661 2571 c-24 -34 -28 -93 -6 -111 15 -13 87 -16 105 -5 22 14 7
25 -34 25 l-44 0 5 60 c3 33 3 60 0 60 -3 0 -15 -13 -26 -29z m5 -52 c-9 -22
-15 -27 -15 -16 -1 21 18 61 25 54 3 -3 -2 -20 -10 -38z m57 -56 c-7 -2 -19
-2 -25 0 -7 3 -2 5 12 5 14 0 19 -2 13 -5z"/>
<path d="M2070 2541 c-105 -34 -171 -74 -221 -137 -39 -50 -38 -64 9 -64 56 0
167 61 240 133 89 88 83 103 -28 68z m60 -11 c0 -38 -178 -158 -257 -175 -49
-10 -42 11 27 76 47 45 75 62 132 82 83 29 98 31 98 17z"/>
<path d="M2555 2506 c-45 -107 0 -161 104 -125 38 14 40 28 4 31 -16 0 -32 2
-38 3 -5 2 -18 3 -28 4 -14 1 -17 6 -11 24 9 28 6 79 -6 91 -6 6 -15 -4 -25
-28z m6 -79 c-13 -13 -15 31 -3 60 5 14 8 10 10 -16 2 -18 -1 -38 -7 -44z m97
-34 c-10 -2 -28 -2 -40 0 -13 2 -5 4 17 4 22 1 32 -1 23 -4z"/>
<path d="M1567 2503 c-11 -10 -8 -154 3 -198 22 -81 97 -195 130 -195 29 0 35
58 17 151 -19 96 -53 174 -96 217 -33 33 -43 37 -54 25z m56 -50 c52 -76 81
-154 85 -230 2 -39 0 -79 -6 -89 -8 -15 -14 -12 -42 27 -64 88 -74 116 -78
227 -3 62 0 102 6 102 5 0 21 -17 35 -37z"/>
<path d="M2456 2438 c-30 -51 -33 -84 -10 -116 13 -19 24 -22 78 -22 59 0 110
19 95 35 -4 3 -37 6 -73 6 -59 0 -65 2 -57 17 18 35 21 88 7 107 -12 17 -15
15 -40 -27z m34 -8 c0 -29 -27 -90 -39 -90 -15 0 -14 23 5 70 17 43 34 53 34
20z m85 -110 c-3 -5 -24 -10 -46 -10 -24 0 -38 4 -34 10 3 6 24 10 46 10 24 0
38 -4 34 -10z"/>
<path d="M2351 2394 c-44 -55 -51 -153 -14 -190 13 -13 30 -15 82 -11 64 4
121 22 121 38 0 18 -73 26 -137 15 l-43 -8 15 29 c8 15 15 39 15 53 -1 20 -5
15 -22 -22 -26 -60 -54 -66 -43 -10 10 54 27 86 53 97 12 5 21 14 19 19 -7 20
-26 16 -46 -10z m154 -163 c10 -18 -95 -37 -121 -23 -16 9 -14 12 16 20 46 13
97 14 105 3z"/>
<path d="M1936 2320 c-44 -22 -97 -56 -119 -77 -40 -39 -77 -100 -77 -128 0
-61 214 72 279 174 54 84 37 91 -83 31z m94 14 c0 -17 -46 -78 -86 -113 -52
-45 -169 -109 -180 -98 -13 12 27 76 71 114 60 52 195 119 195 97z"/>
<path d="M2232 2321 c-23 -37 -36 -117 -26 -158 10 -42 31 -61 77 -69 l42 -7
-45 -15 c-25 -8 -56 -23 -70 -32 l-25 -18 -1 82 c0 79 -16 150 -35 162 -5 3
-18 -14 -29 -38 -20 -43 -25 -126 -11 -162 4 -11 7 11 7 50 0 40 5 79 13 93
13 24 14 24 28 5 10 -13 13 -43 11 -104 -3 -74 -5 -85 -20 -84 -25 2 -22 -12
4 -30 30 -22 62 -20 136 6 78 27 133 70 114 90 -10 10 -14 9 -18 -7 -3 -11
-19 -30 -37 -42 -33 -22 -116 -53 -143 -53 -47 0 40 63 103 75 38 7 146 83
137 96 -8 13 -72 11 -132 -4 l-52 -14 8 26 c11 40 8 159 -5 172 -9 9 -16 4
-31 -20z m33 -42 c11 -50 -12 -139 -35 -139 -14 0 -12 114 2 145 15 33 25 32
33 -6z m155 -127 c0 -11 -89 -42 -118 -42 -34 0 -22 23 19 37 39 14 99 17 99
5z"/>
<path d="M1470 2209 c0 -55 26 -151 57 -213 25 -50 133 -166 154 -166 7 0 10
28 7 83 -5 109 -36 176 -124 268 -37 38 -73 69 -81 69 -9 0 -13 -13 -13 -41z
m89 -44 c65 -68 111 -164 118 -245 7 -74 -2 -76 -63 -14 -72 75 -113 159 -128
267 -10 64 7 62 73 -8z"/>
<path d="M1930 2134 c-76 -49 -169 -141 -191 -189 -20 -42 -25 -90 -10 -99 28
-18 210 154 248 235 47 102 40 110 -47 53z m23 -66 c-29 -54 -131 -161 -184
-192 l-29 -17 0 31 c0 37 34 91 91 147 54 50 143 107 147 94 2 -6 -9 -34 -25
-63z"/>
<path d="M2022 2113 c-24 -62 -25 -102 -2 -173 34 -107 56 -115 80 -27 13 47
-8 140 -44 193 l-23 35 -11 -28z m43 -55 c28 -69 31 -188 4 -188 -26 0 -56
125 -45 185 9 44 23 45 41 3z"/>
<path d="M1939 1927 c-3 -115 6 -145 59 -215 24 -32 27 -33 39 -16 16 21 17
92 2 131 -16 43 -71 132 -86 137 -9 4 -13 -6 -14 -37z m60 -49 c37 -74 47
-150 19 -156 -28 -6 -60 71 -66 157 -3 46 -1 72 5 68 5 -3 24 -35 42 -69z"/>
<path d="M2200 1949 c-54 -24 -100 -66 -100 -91 0 -23 17 -23 83 2 52 20 137
82 137 101 0 16 -74 9 -120 -12z m88 -1 c-5 -15 -103 -76 -136 -85 -13 -3 -26
-3 -29 1 -11 11 23 39 82 68 65 30 89 35 83 16z"/>
<path d="M2211 1843 c-27 -10 -68 -38 -104 -74 -95 -92 -55 -115 60 -33 56 40
103 93 103 117 0 9 -7 8 -59 -10z m4 -44 c-38 -40 -120 -99 -137 -99 -35 0 40
82 104 114 72 36 78 33 33 -15z"/>
</g>
</svg>
